<svg width="1600" height="900" viewBox="0 0 1600 900" fill="none" xmlns="http://www.w3.org/2000/svg">
<g clip-path="url(#clip0_26774_623765)">
<path d="M-105.88 776.274C120.843 750.362 402.522 1077.53 764.621 1050.9C1126.72 1024.27 1089.23 1348.26 1227.22 1352.51" stroke="#F9FCFF" stroke-width="2"/>
<path d="M25.3651 1079.55C247.214 1037.74 381.15 703.132 810.966 634.216C1240.78 565.3 1487.53 1191.11 1763.11 1189.74" stroke="#F9FCFF" stroke-width="2"/>
<path d="M0.585938 732.154C231.62 700.23 439.653 993.227 911.568 933.308C1383.48 873.39 1596.56 1254.48 1837.95 1227.01" stroke="#F9FCFF" stroke-width="2"/>
<path d="M-203.511 1036.77C3.54865 996.114 114.086 655.726 514.567 593.138C915.064 530.548 1137.83 1194.54 1408.82 1208.14" stroke="#F9FCFF" stroke-width="2"/>
<path d="M1768.05 151.448C1570.98 194.165 1294.54 -68.7338 978.505 -13.4823C662.467 41.7693 666.944 -246.402 545.243 -238.001" stroke="#F9FCFF" stroke-width="2"/>
<path d="M1625.99 -103.668C1434.6 -47.4077 1346.25 258.58 974.392 356.965C602.531 455.351 330.554 -73.2062 88.3682 -47.7701" stroke="#F9FCFF" stroke-width="2"/>
<path d="M1465.26 -295.688C1296.9 -250.387 1105.27 -305.787 772.461 -215.628C439.637 -125.465 467.838 -25.393 133.988 64.9557C-199.862 155.304 -412.33 -3.9288 -587 40.9454" stroke="#F9FCFF" stroke-width="2"/>
<path d="M1678.32 199.602C1477.98 247.984 1269.31 8.65462 859.638 102.831C449.97 197.007 229.117 -119.338 19.2831 -73.9627" stroke="#F9FCFF" stroke-width="2"/>
<path d="M1830.99 -86.1759C1652.5 -32.2277 1585.24 276.781 1238.62 367.023C891.977 457.27 637.732 -106.963 398.265 -95.1007" stroke="#F9FCFF" stroke-width="2"/>
</g>
<defs>
<clipPath id="clip0_26774_623765">
<rect width="1600" height="900" fill="white"/>
</clipPath>
</defs>
</svg>
