<svg width="196" height="60" viewBox="0 0 196 60" fill="none" xmlns="http://www.w3.org/2000/svg">
<path d="M39.8184 48.3112V59.3095H9.35443V48.3112H39.8184ZM14.5283 0V59.3095H0V0H14.5283Z" fill="#68D6F5"/>
<mask id="mask0_4632_31671" class="mask-type-alpha" maskUnits="userSpaceOnUse" x="0" y="0" width="40" height="60">
<path d="M39.8184 48.3112V59.3095H9.35443V48.3112H39.8184ZM14.5283 0V59.3095H0V0H14.5283Z" fill="#3AC8FF"/>
</mask>
<g mask="url(#mask0_4632_31671)">
<g filter="url(#filter0_i_4632_31671)">
<path d="M42.7457 20.7595C42.7457 28.4699 46.8446 50.4144 42.1601 59.311C14.9947 59.311 -7.02731 36.2092 -7.02731 7.7117C-7.02731 -1.18584 1.17078 -1.77862 8.78293 -1.77862C35.9484 -1.77862 42.7457 -7.73797 42.7457 20.7595Z" fill="#04BAEE"/>
</g>
</g>
<path d="M107.53 0L117.329 19.788L127.128 0H143.597L126.881 29.5185L144.05 59.5276H127.416L117.329 39.3716L107.241 59.5276H90.5666L107.777 29.5185L91.0195 0H107.53Z" fill="#68D6F5"/>
<mask id="mask1_4632_31671" class="mask-type-alpha" maskUnits="userSpaceOnUse" x="90" y="0" width="55" height="60">
<path d="M107.53 0L117.329 19.788L127.128 0H143.597L126.881 29.5185L144.05 59.5276H127.416L117.329 39.3716L107.242 59.5276H90.5668L107.777 29.5185L91.0197 0H107.53Z" fill="black"/>
</mask>
<g mask="url(#mask1_4632_31671)">
<g filter="url(#filter1_i_4632_31671)">
<path d="M160.406 29.6568C160.406 46.0347 165.005 59.3115 144.102 59.3115C123.2 59.3115 84.7114 39.6379 84.7114 23.26C84.7114 6.88214 84.7114 -0.229544 98.1795 -1.74128C165.519 -9.29993 160.406 13.2789 160.406 29.6568Z" fill="#04BAEE"/>
</g>
</g>
<path d="M181.548 43.6765C181.548 42.7674 181.411 41.9519 181.137 41.2299C180.862 40.4813 180.354 39.7861 179.613 39.1444C178.872 38.5027 177.802 37.861 176.402 37.2192C175.029 36.5508 173.218 35.8556 170.967 35.1337C168.332 34.2781 165.793 33.3155 163.35 32.246C160.907 31.1497 158.725 29.8797 156.804 28.4358C154.882 26.9652 153.359 25.254 152.234 23.3021C151.108 21.3235 150.545 19.0241 150.545 16.4037C150.545 13.8904 151.122 11.631 152.275 9.62567C153.428 7.59358 155.033 5.86898 157.092 4.45187C159.178 3.00802 161.621 1.91176 164.421 1.1631C167.22 0.387701 170.281 0 173.602 0C177.994 0 181.864 0.748663 185.213 2.24599C188.589 3.71658 191.224 5.81551 193.118 8.54278C195.039 11.2433 196 14.4385 196 18.1283H181.631C181.631 16.6578 181.315 15.361 180.684 14.238C180.08 13.115 179.16 12.2326 177.925 11.5909C176.69 10.9492 175.139 10.6283 173.273 10.6283C171.461 10.6283 169.938 10.8957 168.703 11.4305C167.467 11.9652 166.534 12.6872 165.903 13.5963C165.271 14.4786 164.956 15.4545 164.956 16.5241C164.956 17.4064 165.203 18.2086 165.697 18.9305C166.218 19.6257 166.946 20.2807 167.879 20.8957C168.84 21.5107 169.993 22.0989 171.338 22.6604C172.71 23.2219 174.247 23.7701 175.949 24.3048C179.133 25.2941 181.96 26.4037 184.43 27.6337C186.928 28.8369 189.028 30.2139 190.73 31.7647C192.459 33.2888 193.763 35.0267 194.641 36.9786C195.547 38.9305 196 41.1364 196 43.5963C196 46.2166 195.478 48.5428 194.435 50.5749C193.392 52.6069 191.896 54.3315 189.948 55.7487C187.999 57.139 185.666 58.1952 182.948 58.9171C180.231 59.639 177.198 60 173.849 60C170.775 60 167.742 59.6257 164.75 58.877C161.786 58.1016 159.096 56.9251 156.68 55.3476C154.265 53.7433 152.33 51.6979 150.875 49.2112C149.448 46.6979 148.734 43.7166 148.734 40.2674H163.227C163.227 41.9786 163.46 43.4225 163.927 44.5989C164.393 45.7754 165.079 46.7246 165.985 47.4465C166.891 48.1417 168.003 48.6497 169.32 48.9706C170.638 49.2647 172.147 49.4118 173.849 49.4118C175.688 49.4118 177.17 49.1578 178.296 48.6497C179.421 48.115 180.245 47.4198 180.766 46.5642C181.288 45.6818 181.548 44.7192 181.548 43.6765Z" fill="#68D6F5"/>
<mask id="mask2_4632_31671" class="mask-type-alpha" maskUnits="userSpaceOnUse" x="148" y="0" width="48" height="60">
<path d="M181.548 43.6765C181.548 42.7674 181.411 41.9519 181.137 41.2299C180.862 40.4813 180.354 39.7861 179.613 39.1444C178.872 38.5027 177.802 37.861 176.402 37.2192C175.029 36.5508 173.218 35.8556 170.967 35.1337C168.332 34.2781 165.793 33.3155 163.35 32.246C160.907 31.1497 158.725 29.8797 156.804 28.4358C154.882 26.9652 153.359 25.254 152.234 23.3021C151.108 21.3235 150.546 19.0241 150.546 16.4037C150.546 13.8904 151.122 11.631 152.275 9.62567C153.428 7.59358 155.033 5.86898 157.092 4.45187C159.178 3.00802 161.621 1.91176 164.421 1.1631C167.22 0.387701 170.281 0 173.602 0C177.994 0 181.864 0.748663 185.213 2.24599C188.589 3.71658 191.224 5.81551 193.118 8.54278C195.039 11.2433 196 14.4385 196 18.1283H181.631C181.631 16.6578 181.315 15.361 180.684 14.238C180.08 13.115 179.16 12.2326 177.925 11.5909C176.69 10.9492 175.139 10.6283 173.273 10.6283C171.461 10.6283 169.938 10.8957 168.703 11.4305C167.467 11.9652 166.534 12.6872 165.903 13.5963C165.272 14.4786 164.956 15.4545 164.956 16.5241C164.956 17.4064 165.203 18.2086 165.697 18.9305C166.219 19.6257 166.946 20.2807 167.879 20.8957C168.84 21.5107 169.993 22.0989 171.338 22.6604C172.71 23.2219 174.247 23.7701 175.949 24.3048C179.133 25.2941 181.96 26.4037 184.431 27.6337C186.928 28.8369 189.028 30.2139 190.73 31.7647C192.459 33.2888 193.763 35.0267 194.641 36.9786C195.547 38.9305 196 41.1364 196 43.5963C196 46.2166 195.478 48.5428 194.435 50.5749C193.392 52.6069 191.896 54.3315 189.948 55.7487C187.999 57.139 185.666 58.1952 182.948 58.9171C180.231 59.639 177.198 60 173.849 60C170.775 60 167.742 59.6257 164.75 58.877C161.786 58.1016 159.096 56.9251 156.68 55.3476C154.265 53.7433 152.33 51.6979 150.875 49.2112C149.448 46.6979 148.734 43.7166 148.734 40.2674H163.227C163.227 41.9786 163.46 43.4225 163.927 44.5989C164.393 45.7754 165.079 46.7246 165.985 47.4465C166.891 48.1417 168.003 48.6497 169.32 48.9706C170.638 49.2647 172.147 49.4118 173.849 49.4118C175.688 49.4118 177.17 49.1578 178.296 48.6497C179.421 48.115 180.245 47.4198 180.766 46.5642C181.288 45.6818 181.548 44.7192 181.548 43.6765Z" fill="black"/>
</mask>
<g mask="url(#mask2_4632_31671)">
<g filter="url(#filter2_i_4632_31671)">
<path d="M207.29 26.8093C207.29 41.6156 206.724 57.6114 187.967 57.6114C169.21 57.6114 139.365 41.6156 139.365 26.8093C139.365 12.0029 154.57 0 173.328 0C192.085 0 207.29 12.0029 207.29 26.8093Z" fill="#04BAEE"/>
</g>
</g>
<path d="M85.7574 48.4888V59.5276H53.8076V48.4888H85.7574ZM58.9541 0V59.5276H44.5026V0H58.9541ZM81.6402 23.6311V34.3019H53.8076V23.6311H81.6402ZM85.881 0V11.0796H53.8076V0H85.881Z" fill="#68D6F5"/>
<mask id="mask3_4632_31671" class="mask-type-alpha" maskUnits="userSpaceOnUse" x="44" y="0" width="42" height="60">
<path d="M85.7574 48.4888V59.5276H53.8076V48.4888H85.7574ZM58.9541 0V59.5276H44.5026V0H58.9541ZM81.6402 23.6311V34.3019H53.8076V23.6311H81.6402ZM85.881 0V11.0796H53.8076V0H85.881Z" fill="#3AC8FF"/>
</mask>
<g mask="url(#mask3_4632_31671)">
<g filter="url(#filter3_i_4632_31671)">
<path d="M106.572 29.6585C106.572 46.0363 103.804 59.3125 86.6635 59.3125C69.5233 59.3125 44.5025 46.0363 44.5025 29.6585C44.5025 13.2806 14.639 -7.55577 75.5375 0.00372934C108.915 -4.64872 106.572 13.2806 106.572 29.6585Z" fill="#04BAEE"/>
</g>
</g>
<defs>
<filter id="filter0_i_4632_31671" x="-7.02731" y="-2.29688" width="51.4329" height="67.3222" filterUnits="userSpaceOnUse" color-interpolation-filters="sRGB">
<feFlood flood-opacity="0" result="BackgroundImageFix"/>
<feBlend mode="normal" in="SourceGraphic" in2="BackgroundImageFix" result="shape"/>
<feColorMatrix in="SourceAlpha" type="matrix" values="0 0 0 0 0 0 0 0 0 0 0 0 0 0 0 0 0 0 127 0" result="hardAlpha"/>
<feOffset dy="5.71429"/>
<feGaussianBlur stdDeviation="2.85714"/>
<feComposite in2="hardAlpha" operator="arithmetic" k2="-1" k3="1"/>
<feColorMatrix type="matrix" values="0 0 0 0 0 0 0 0 0 0.639216 0 0 0 0 0.890196 0 0 0 1 0"/>
<feBlend mode="normal" in2="shape" result="effect1_innerShadow_4632_31671"/>
</filter>
<filter id="filter1_i_4632_31671" x="84.7114" y="-3.24438" width="76.1237" height="68.2702" filterUnits="userSpaceOnUse" color-interpolation-filters="sRGB">
<feFlood flood-opacity="0" result="BackgroundImageFix"/>
<feBlend mode="normal" in="SourceGraphic" in2="BackgroundImageFix" result="shape"/>
<feColorMatrix in="SourceAlpha" type="matrix" values="0 0 0 0 0 0 0 0 0 0 0 0 0 0 0 0 0 0 127 0" result="hardAlpha"/>
<feOffset dy="5.71429"/>
<feGaussianBlur stdDeviation="2.85714"/>
<feComposite in2="hardAlpha" operator="arithmetic" k2="-1" k3="1"/>
<feColorMatrix type="matrix" values="0 0 0 0 0 0 0 0 0 0.639216 0 0 0 0 0.890196 0 0 0 1 0"/>
<feBlend mode="normal" in2="shape" result="effect1_innerShadow_4632_31671"/>
</filter>
<filter id="filter2_i_4632_31671" x="139.365" y="0" width="67.9255" height="63.3256" filterUnits="userSpaceOnUse" color-interpolation-filters="sRGB">
<feFlood flood-opacity="0" result="BackgroundImageFix"/>
<feBlend mode="normal" in="SourceGraphic" in2="BackgroundImageFix" result="shape"/>
<feColorMatrix in="SourceAlpha" type="matrix" values="0 0 0 0 0 0 0 0 0 0 0 0 0 0 0 0 0 0 127 0" result="hardAlpha"/>
<feOffset dy="5.71429"/>
<feGaussianBlur stdDeviation="2.85714"/>
<feComposite in2="hardAlpha" operator="arithmetic" k2="-1" k3="1"/>
<feColorMatrix type="matrix" values="0 0 0 0 0 0 0 0 0 0.639216 0 0 0 0 0.890196 0 0 0 1 0"/>
<feBlend mode="normal" in2="shape" result="effect1_innerShadow_4632_31671"/>
</filter>
<filter id="filter3_i_4632_31671" x="37.1809" y="-1.59375" width="69.4269" height="66.6205" filterUnits="userSpaceOnUse" color-interpolation-filters="sRGB">
<feFlood flood-opacity="0" result="BackgroundImageFix"/>
<feBlend mode="normal" in="SourceGraphic" in2="BackgroundImageFix" result="shape"/>
<feColorMatrix in="SourceAlpha" type="matrix" values="0 0 0 0 0 0 0 0 0 0 0 0 0 0 0 0 0 0 127 0" result="hardAlpha"/>
<feOffset dy="5.71429"/>
<feGaussianBlur stdDeviation="2.85714"/>
<feComposite in2="hardAlpha" operator="arithmetic" k2="-1" k3="1"/>
<feColorMatrix type="matrix" values="0 0 0 0 0 0 0 0 0 0.639216 0 0 0 0 0.890196 0 0 0 1 0"/>
<feBlend mode="normal" in2="shape" result="effect1_innerShadow_4632_31671"/>
</filter>
</defs>
</svg>
