<svg width="79" height="24" viewBox="0 0 79 24" fill="none" xmlns="http://www.w3.org/2000/svg">
<path d="M15.9213 19.3245V23.7238H3.74034V19.3245H15.9213ZM5.80911 0V23.7238H0V0H5.80911Z" fill="#EEEEEE"/>
<mask id="mask0_26192_129048" class="mask-type-alpha" maskUnits="userSpaceOnUse" x="0" y="0" width="16" height="24">
<path d="M15.9213 19.3245V23.7238H3.74034V19.3245H15.9213ZM5.80911 0V23.7238H0V0H5.80911Z" fill="#3AC8FF"/>
</mask>
<g mask="url(#mask0_26192_129048)">
<g filter="url(#filter0_i_26192_129048)">
<path d="M17.0915 8.30386C17.0915 11.388 18.7305 20.1658 16.8574 23.7244C5.99536 23.7244 -2.81006 14.4837 -2.81006 3.08473C-2.81006 -0.474287 0.467924 -0.711398 3.51162 -0.711398C14.3736 -0.711398 17.0915 -3.09514 17.0915 8.30386Z" fill="white"/>
</g>
</g>
<path d="M42.9955 0L46.9136 7.9152L50.8318 0H57.4169L50.733 11.8074L57.5979 23.811H50.947L46.9136 15.7486L42.8803 23.811H36.2129L43.0943 11.8074L36.394 0H42.9955Z" fill="#EEEEEE"/>
<mask id="mask1_26192_129048" class="mask-type-alpha" maskUnits="userSpaceOnUse" x="36" y="0" width="22" height="24">
<path d="M42.9955 0L46.9136 7.9152L50.8318 0H57.4169L50.733 11.8074L57.5979 23.811H50.947L46.9136 15.7486L42.8803 23.811H36.2129L43.0943 11.8074L36.394 0H42.9955Z" fill="black"/>
</mask>
<g mask="url(#mask1_26192_129048)">
<g filter="url(#filter1_i_26192_129048)">
<path d="M64.1377 11.8627C64.1377 18.4139 65.9766 23.7246 57.6188 23.7246C49.2611 23.7246 33.8716 15.8552 33.8716 9.30403C33.8716 2.75288 33.8716 -0.091793 39.2568 -0.69649C66.1824 -3.71995 64.1377 5.31159 64.1377 11.8627Z" fill="white"/>
</g>
</g>
<path d="M72.5915 17.4706C72.5915 17.107 72.5366 16.7807 72.4269 16.492C72.3171 16.1925 72.1141 15.9144 71.8177 15.6578C71.5214 15.4011 71.0934 15.1444 70.5336 14.8877C69.9849 14.6203 69.2605 14.3422 68.3606 14.0535C67.3069 13.7112 66.2917 13.3262 65.315 12.8984C64.3382 12.4599 63.4657 11.9519 62.6974 11.3743C61.9291 10.7861 61.32 10.1016 60.87 9.32086C60.4201 8.52941 60.1951 7.60963 60.1951 6.5615C60.1951 5.55615 60.4255 4.65241 60.8865 3.85027C61.3475 3.03743 61.9895 2.34759 62.8126 1.78075C63.6467 1.20321 64.6235 0.764706 65.743 0.465241C66.8625 0.15508 68.0862 0 69.4142 0C71.1702 0 72.7177 0.299465 74.0567 0.898396C75.4066 1.48663 76.4602 2.3262 77.2175 3.41711C77.9858 4.49733 78.3699 5.7754 78.3699 7.25134H72.6244C72.6244 6.6631 72.4982 6.14438 72.2458 5.69519C72.0043 5.24599 71.6366 4.89305 71.1428 4.63636C70.6489 4.37968 70.0288 4.25134 69.2825 4.25134C68.5581 4.25134 67.949 4.35829 67.4551 4.57219C66.9612 4.7861 66.5881 5.07487 66.3357 5.4385C66.0832 5.79144 65.957 6.18182 65.957 6.60963C65.957 6.96257 66.0558 7.28342 66.2533 7.57219C66.4619 7.85027 66.7527 8.1123 67.1259 8.35829C67.51 8.60428 67.9709 8.83957 68.5087 9.06417C69.0575 9.28877 69.6721 9.50802 70.3525 9.72192C71.6257 10.1176 72.7561 10.5615 73.7439 11.0535C74.7426 11.5348 75.5822 12.0856 76.2627 12.7059C76.9541 13.3155 77.4754 14.0107 77.8266 14.7914C78.1888 15.5722 78.3699 16.4545 78.3699 17.4385C78.3699 18.4866 78.1614 19.4171 77.7443 20.2299C77.3272 21.0428 76.7291 21.7326 75.9499 22.2995C75.1706 22.8556 74.2377 23.2781 73.1512 23.5668C72.0647 23.8556 70.8519 24 69.513 24C68.2837 24 67.071 23.8503 65.8747 23.5508C64.6894 23.2406 63.6138 22.7701 62.648 22.139C61.6822 21.4973 60.9084 20.6791 60.3268 19.6845C59.7561 18.6791 59.4707 17.4866 59.4707 16.107H65.2656C65.2656 16.7914 65.3589 17.369 65.5454 17.8396C65.732 18.3102 66.0064 18.6898 66.3686 18.9786C66.7308 19.2567 67.1752 19.4599 67.7021 19.5882C68.2289 19.7059 68.8325 19.7647 69.513 19.7647C70.2483 19.7647 70.8409 19.6631 71.2909 19.4599C71.7409 19.246 72.0702 18.9679 72.2787 18.6257C72.4872 18.2727 72.5915 17.8877 72.5915 17.4706Z" fill="#EEEEEE"/>
<mask id="mask2_26192_129048" class="mask-type-alpha" maskUnits="userSpaceOnUse" x="59" y="0" width="20" height="24">
<path d="M72.5915 17.4706C72.5915 17.107 72.5366 16.7807 72.4269 16.492C72.3171 16.1925 72.1141 15.9144 71.8177 15.6578C71.5214 15.4011 71.0934 15.1444 70.5336 14.8877C69.9849 14.6203 69.2605 14.3422 68.3606 14.0535C67.3069 13.7112 66.2917 13.3262 65.315 12.8984C64.3382 12.4599 63.4657 11.9519 62.6974 11.3743C61.9291 10.7861 61.32 10.1016 60.87 9.32086C60.4201 8.52941 60.1951 7.60963 60.1951 6.5615C60.1951 5.55615 60.4255 4.65241 60.8865 3.85027C61.3475 3.03743 61.9895 2.34759 62.8126 1.78075C63.6467 1.20321 64.6235 0.764706 65.743 0.465241C66.8625 0.15508 68.0862 0 69.4142 0C71.1702 0 72.7177 0.299465 74.0567 0.898396C75.4066 1.48663 76.4602 2.3262 77.2175 3.41711C77.9858 4.49733 78.3699 5.7754 78.3699 7.25134H72.6244C72.6244 6.6631 72.4982 6.14438 72.2458 5.69519C72.0043 5.24599 71.6366 4.89305 71.1428 4.63636C70.6489 4.37968 70.0288 4.25134 69.2825 4.25134C68.5581 4.25134 67.949 4.35829 67.4551 4.57219C66.9612 4.7861 66.5881 5.07487 66.3357 5.4385C66.0832 5.79144 65.957 6.18182 65.957 6.60963C65.957 6.96257 66.0558 7.28342 66.2533 7.57219C66.4619 7.85027 66.7527 8.1123 67.1259 8.35829C67.51 8.60428 67.9709 8.83957 68.5087 9.06417C69.0575 9.28877 69.6721 9.50802 70.3525 9.72192C71.6257 10.1176 72.7561 10.5615 73.7439 11.0535C74.7426 11.5348 75.5822 12.0856 76.2627 12.7059C76.9541 13.3155 77.4754 14.0107 77.8266 14.7914C78.1888 15.5722 78.3699 16.4545 78.3699 17.4385C78.3699 18.4866 78.1614 19.4171 77.7443 20.2299C77.3272 21.0428 76.7291 21.7326 75.9499 22.2995C75.1706 22.8556 74.2377 23.2781 73.1512 23.5668C72.0647 23.8556 70.8519 24 69.513 24C68.2837 24 67.071 23.8503 65.8747 23.5508C64.6894 23.2406 63.6138 22.7701 62.648 22.139C61.6822 21.4973 60.9084 20.6791 60.3268 19.6845C59.7561 18.6791 59.4707 17.4866 59.4707 16.107H65.2656C65.2656 16.7914 65.3589 17.369 65.5454 17.8396C65.732 18.3102 66.0064 18.6898 66.3686 18.9786C66.7308 19.2567 67.1752 19.4599 67.7021 19.5882C68.2289 19.7059 68.8325 19.7647 69.513 19.7647C70.2483 19.7647 70.8409 19.6631 71.2909 19.4599C71.7409 19.246 72.0702 18.9679 72.2787 18.6257C72.4872 18.2727 72.5915 17.8877 72.5915 17.4706Z" fill="black"/>
</mask>
<g mask="url(#mask2_26192_129048)">
<g filter="url(#filter2_i_26192_129048)">
<path d="M82.8844 10.7237C82.8844 16.6462 82.6579 23.0446 75.1579 23.0446C67.6579 23.0446 55.7246 16.6462 55.7246 10.7237C55.7246 4.80117 61.8045 0 69.3045 0C76.8045 0 82.8844 4.80117 82.8844 10.7237Z" fill="white"/>
</g>
</g>
<path d="M34.2901 19.3955V23.811H21.515V19.3955H34.2901ZM23.5728 0V23.811H17.7944V0H23.5728ZM32.6438 9.45245V13.7208H21.515V9.45245H32.6438ZM34.3395 0V4.43186H21.515V0H34.3395Z" fill="#EEEEEE"/>
<mask id="mask3_26192_129048" class="mask-type-alpha" maskUnits="userSpaceOnUse" x="17" y="0" width="18" height="24">
<path d="M34.2901 19.3955V23.811H21.515V19.3955H34.2901ZM23.5728 0V23.811H17.7944V0H23.5728ZM32.6438 9.45245V13.7208H21.515V9.45245H32.6438ZM34.3395 0V4.43186H21.515V0H34.3395Z" fill="#3AC8FF"/>
</mask>
<g mask="url(#mask3_26192_129048)">
<g filter="url(#filter3_i_26192_129048)">
<path d="M42.6127 11.8634C42.6127 18.4146 41.5056 23.7251 34.6521 23.7251C27.7987 23.7251 17.7942 18.4146 17.7942 11.8634C17.7942 5.31229 5.85337 -3.02226 30.2034 0.00154052C43.5493 -1.85944 42.6127 5.31229 42.6127 11.8634Z" fill="white"/>
</g>
</g>
<defs>
<filter id="filter0_i_26192_129048" x="-2.81006" y="-0.918701" width="20.5654" height="26.6432" filterUnits="userSpaceOnUse" color-interpolation-filters="sRGB">
<feFlood flood-opacity="0" result="BackgroundImageFix"/>
<feBlend mode="normal" in="SourceGraphic" in2="BackgroundImageFix" result="shape"/>
<feColorMatrix in="SourceAlpha" type="matrix" values="0 0 0 0 0 0 0 0 0 0 0 0 0 0 0 0 0 0 127 0" result="hardAlpha"/>
<feOffset dy="2"/>
<feGaussianBlur stdDeviation="2.85714"/>
<feComposite in2="hardAlpha" operator="arithmetic" k2="-1" k3="1"/>
<feColorMatrix type="matrix" values="0 0 0 0 0.733333 0 0 0 0 0.733333 0 0 0 0 0.733333 0 0 0 1 0"/>
<feBlend mode="normal" in2="shape" result="effect1_innerShadow_26192_129048"/>
</filter>
<filter id="filter1_i_26192_129048" x="33.8716" y="-1.29773" width="30.438" height="27.0223" filterUnits="userSpaceOnUse" color-interpolation-filters="sRGB">
<feFlood flood-opacity="0" result="BackgroundImageFix"/>
<feBlend mode="normal" in="SourceGraphic" in2="BackgroundImageFix" result="shape"/>
<feColorMatrix in="SourceAlpha" type="matrix" values="0 0 0 0 0 0 0 0 0 0 0 0 0 0 0 0 0 0 127 0" result="hardAlpha"/>
<feOffset dy="2"/>
<feGaussianBlur stdDeviation="2.85714"/>
<feComposite in2="hardAlpha" operator="arithmetic" k2="-1" k3="1"/>
<feColorMatrix type="matrix" values="0 0 0 0 0.733333 0 0 0 0 0.733333 0 0 0 0 0.733333 0 0 0 1 0"/>
<feBlend mode="normal" in2="shape" result="effect1_innerShadow_26192_129048"/>
</filter>
<filter id="filter2_i_26192_129048" x="55.7246" y="0" width="27.1597" height="25.0446" filterUnits="userSpaceOnUse" color-interpolation-filters="sRGB">
<feFlood flood-opacity="0" result="BackgroundImageFix"/>
<feBlend mode="normal" in="SourceGraphic" in2="BackgroundImageFix" result="shape"/>
<feColorMatrix in="SourceAlpha" type="matrix" values="0 0 0 0 0 0 0 0 0 0 0 0 0 0 0 0 0 0 127 0" result="hardAlpha"/>
<feOffset dy="2"/>
<feGaussianBlur stdDeviation="2.85714"/>
<feComposite in2="hardAlpha" operator="arithmetic" k2="-1" k3="1"/>
<feColorMatrix type="matrix" values="0 0 0 0 0.733333 0 0 0 0 0.733333 0 0 0 0 0.733333 0 0 0 1 0"/>
<feBlend mode="normal" in2="shape" result="effect1_innerShadow_26192_129048"/>
</filter>
<filter id="filter3_i_26192_129048" x="14.8667" y="-0.637451" width="27.7603" height="26.3625" filterUnits="userSpaceOnUse" color-interpolation-filters="sRGB">
<feFlood flood-opacity="0" result="BackgroundImageFix"/>
<feBlend mode="normal" in="SourceGraphic" in2="BackgroundImageFix" result="shape"/>
<feColorMatrix in="SourceAlpha" type="matrix" values="0 0 0 0 0 0 0 0 0 0 0 0 0 0 0 0 0 0 127 0" result="hardAlpha"/>
<feOffset dy="2"/>
<feGaussianBlur stdDeviation="2.85714"/>
<feComposite in2="hardAlpha" operator="arithmetic" k2="-1" k3="1"/>
<feColorMatrix type="matrix" values="0 0 0 0 0.733333 0 0 0 0 0.733333 0 0 0 0 0.733333 0 0 0 1 0"/>
<feBlend mode="normal" in2="shape" result="effect1_innerShadow_26192_129048"/>
</filter>
</defs>
</svg>
