<svg width="79" height="24" viewBox="0 0 79 24" fill="none" xmlns="http://www.w3.org/2000/svg">
<path d="M15.9213 19.3245V23.7238H3.74034V19.3245H15.9213ZM5.80911 0V23.7238H0V0H5.80911Z" fill="#68D6F5"/>
<mask id="mask0_4892_31851" style="mask-type:alpha" maskUnits="userSpaceOnUse" x="0" y="0" width="16" height="24">
<path d="M15.9213 19.3245V23.7238H3.74034V19.3245H15.9213ZM5.80911 0V23.7238H0V0H5.80911Z" fill="#3AC8FF"/>
</mask>
<g mask="url(#mask0_4892_31851)">
<g filter="url(#filter0_i_4892_31851)">
<path d="M17.0918 8.30386C17.0918 11.388 18.7307 20.1658 16.8576 23.7244C5.9956 23.7244 -2.80981 14.4837 -2.80981 3.08473C-2.80981 -0.474287 0.468168 -0.711398 3.51186 -0.711398C14.3739 -0.711398 17.0918 -3.09514 17.0918 8.30386Z" fill="#04BAEE"/>
</g>
</g>
<path d="M42.9954 0L46.9135 7.9152L50.8317 0H57.4167L50.7329 11.8074L57.5978 23.811H50.9469L46.9135 15.7486L42.8802 23.811H36.2128L43.0942 11.8074L36.3939 0H42.9954Z" fill="#68D6F5"/>
<mask id="mask1_4892_31851" style="mask-type:alpha" maskUnits="userSpaceOnUse" x="36" y="0" width="22" height="24">
<path d="M42.9956 0L46.9138 7.9152L50.8319 0H57.417L50.7331 11.8074L57.5981 23.811H50.9471L46.9138 15.7486L42.8804 23.811H36.213L43.0944 11.8074L36.3941 0H42.9956Z" fill="black"/>
</mask>
<g mask="url(#mask1_4892_31851)">
<g filter="url(#filter1_i_4892_31851)">
<path d="M64.1379 11.8626C64.1379 18.4138 65.9768 23.7245 57.619 23.7245C49.2613 23.7245 33.8718 15.8551 33.8718 9.30391C33.8718 2.75276 33.8718 -0.0919151 39.2569 -0.696612C66.1826 -3.72007 64.1379 5.31147 64.1379 11.8626Z" fill="#04BAEE"/>
</g>
</g>
<path d="M72.5915 17.4706C72.5915 17.107 72.5367 16.7807 72.4269 16.492C72.3172 16.1925 72.1141 15.9144 71.8178 15.6578C71.5215 15.4011 71.0934 15.1444 70.5337 14.8877C69.9849 14.6203 69.2606 14.3422 68.3606 14.0535C67.307 13.7112 66.2918 13.3262 65.315 12.8984C64.3382 12.4599 63.4657 11.9519 62.6975 11.3743C61.9292 10.7861 61.3201 10.1016 60.8701 9.32086C60.4201 8.52941 60.1951 7.60963 60.1951 6.5615C60.1951 5.55615 60.4256 4.65241 60.8866 3.85027C61.3475 3.03743 61.9896 2.34759 62.8127 1.78075C63.6468 1.20321 64.6236 0.764706 65.7431 0.465241C66.8625 0.15508 68.0862 0 69.4142 0C71.1703 0 72.7178 0.299465 74.0567 0.898396C75.4067 1.48663 76.4603 2.3262 77.2176 3.41711C77.9858 4.49733 78.3699 5.7754 78.3699 7.25134H72.6245C72.6245 6.6631 72.4983 6.14438 72.2458 5.69519C72.0044 5.24599 71.6367 4.89305 71.1428 4.63636C70.6489 4.37968 70.0288 4.25134 69.2825 4.25134C68.5582 4.25134 67.9491 4.35829 67.4552 4.57219C66.9613 4.7861 66.5881 5.07487 66.3357 5.4385C66.0833 5.79144 65.9571 6.18182 65.9571 6.60963C65.9571 6.96257 66.0558 7.28342 66.2534 7.57219C66.4619 7.85027 66.7528 8.1123 67.1259 8.35829C67.5101 8.60428 67.971 8.83957 68.5088 9.06417C69.0575 9.28877 69.6722 9.50802 70.3526 9.72192C71.6257 10.1176 72.7562 10.5615 73.7439 11.0535C74.7427 11.5348 75.5823 12.0856 76.2627 12.7059C76.9542 13.3155 77.4755 14.0107 77.8267 14.7914C78.1889 15.5722 78.3699 16.4545 78.3699 17.4385C78.3699 18.4866 78.1614 19.4171 77.7444 20.2299C77.3273 21.0428 76.7292 21.7326 75.9499 22.2995C75.1707 22.8556 74.2378 23.2781 73.1513 23.5668C72.0647 23.8556 70.852 24 69.513 24C68.2838 24 67.071 23.8503 65.8748 23.5508C64.6894 23.2406 63.6139 22.7701 62.6481 22.139C61.6823 21.4973 60.9085 20.6791 60.3268 19.6845C59.7561 18.6791 59.4708 17.4866 59.4708 16.107H65.2656C65.2656 16.7914 65.3589 17.369 65.5455 17.8396C65.7321 18.3102 66.0065 18.6898 66.3686 18.9786C66.7308 19.2567 67.1753 19.4599 67.7021 19.5882C68.2289 19.7059 68.8326 19.7647 69.513 19.7647C70.2483 19.7647 70.841 19.6631 71.291 19.4599C71.741 19.246 72.0702 18.9679 72.2787 18.6257C72.4873 18.2727 72.5915 17.8877 72.5915 17.4706Z" fill="#68D6F5"/>
<mask id="mask2_4892_31851" style="mask-type:alpha" maskUnits="userSpaceOnUse" x="59" y="0" width="20" height="24">
<path d="M72.5916 17.4706C72.5916 17.107 72.5367 16.7807 72.427 16.492C72.3172 16.1925 72.1142 15.9144 71.8179 15.6578C71.5215 15.4011 71.0935 15.1444 70.5338 14.8877C69.985 14.6203 69.2606 14.3422 68.3607 14.0535C67.3071 13.7112 66.2919 13.3262 65.3151 12.8984C64.3383 12.4599 63.4658 11.9519 62.6975 11.3743C61.9293 10.7861 61.3201 10.1016 60.8702 9.32086C60.4202 8.52941 60.1952 7.60963 60.1952 6.5615C60.1952 5.55615 60.4257 4.65241 60.8866 3.85027C61.3476 3.03743 61.9896 2.34759 62.8128 1.78075C63.6469 1.20321 64.6237 0.764706 65.7431 0.465241C66.8626 0.15508 68.0863 0 69.4143 0C71.1703 0 72.7178 0.299465 74.0568 0.898396C75.4067 1.48663 76.4603 2.3262 77.2176 3.41711C77.9859 4.49733 78.37 5.7754 78.37 7.25134H72.6245C72.6245 6.6631 72.4983 6.14438 72.2459 5.69519C72.0044 5.24599 71.6368 4.89305 71.1429 4.63636C70.649 4.37968 70.0289 4.25134 69.2826 4.25134C68.5582 4.25134 67.9491 4.35829 67.4552 4.57219C66.9614 4.7861 66.5882 5.07487 66.3358 5.4385C66.0833 5.79144 65.9571 6.18182 65.9571 6.60963C65.9571 6.96257 66.0559 7.28342 66.2535 7.57219C66.462 7.85027 66.7528 8.1123 67.126 8.35829C67.5101 8.60428 67.9711 8.83957 68.5088 9.06417C69.0576 9.28877 69.6722 9.50802 70.3527 9.72192C71.6258 10.1176 72.7562 10.5615 73.744 11.0535C74.7427 11.5348 75.5823 12.0856 76.2628 12.7059C76.9542 13.3155 77.4755 14.0107 77.8267 14.7914C78.1889 15.5722 78.37 16.4545 78.37 17.4385C78.37 18.4866 78.1615 19.4171 77.7444 20.2299C77.3274 21.0428 76.7292 21.7326 75.95 22.2995C75.1708 22.8556 74.2379 23.2781 73.1513 23.5668C72.0648 23.8556 70.852 24 69.5131 24C68.2839 24 67.0711 23.8503 65.8748 23.5508C64.6895 23.2406 63.6139 22.7701 62.6481 22.139C61.6823 21.4973 60.9086 20.6791 60.3269 19.6845C59.7562 18.6791 59.4708 17.4866 59.4708 16.107H65.2657C65.2657 16.7914 65.359 17.369 65.5456 17.8396C65.7321 18.3102 66.0065 18.6898 66.3687 18.9786C66.7309 19.2567 67.1754 19.4599 67.7022 19.5882C68.229 19.7059 68.8326 19.7647 69.5131 19.7647C70.2484 19.7647 70.8411 19.6631 71.291 19.4599C71.741 19.246 72.0703 18.9679 72.2788 18.6257C72.4873 18.2727 72.5916 17.8877 72.5916 17.4706Z" fill="black"/>
</mask>
<g mask="url(#mask2_4892_31851)">
<g filter="url(#filter2_i_4892_31851)">
<path d="M82.8845 10.7237C82.8845 16.6462 82.658 23.0446 75.158 23.0446C67.6581 23.0446 55.7247 16.6462 55.7247 10.7237C55.7247 4.80117 61.8047 0 69.3046 0C76.8046 0 82.8845 4.80117 82.8845 10.7237Z" fill="#04BAEE"/>
</g>
</g>
<path d="M34.2898 19.3955V23.811H21.5148V19.3955H34.2898ZM23.5726 0V23.811H17.7942V0H23.5726ZM32.6435 9.45245V13.7208H21.5148V9.45245H32.6435ZM34.3392 0V4.43186H21.5148V0H34.3392Z" fill="#68D6F5"/>
<mask id="mask3_4892_31851" style="mask-type:alpha" maskUnits="userSpaceOnUse" x="17" y="0" width="18" height="24">
<path d="M34.2898 19.3955V23.811H21.5148V19.3955H34.2898ZM23.5726 0V23.811H17.7942V0H23.5726ZM32.6435 9.45245V13.7208H21.5148V9.45245H32.6435ZM34.3392 0V4.43186H21.5148V0H34.3392Z" fill="#3AC8FF"/>
</mask>
<g mask="url(#mask3_4892_31851)">
<g filter="url(#filter3_i_4892_31851)">
<path d="M42.6127 11.8634C42.6127 18.4146 41.5056 23.7251 34.6521 23.7251C27.7987 23.7251 17.7942 18.4146 17.7942 11.8634C17.7942 5.31229 5.85336 -3.02226 30.2034 0.00154054C43.5493 -1.85944 42.6127 5.31229 42.6127 11.8634Z" fill="#04BAEE"/>
</g>
</g>
<defs>
<filter id="filter0_i_4892_31851" x="-2.80981" y="-0.918701" width="20.5653" height="30.3574" filterUnits="userSpaceOnUse" color-interpolation-filters="sRGB">
<feFlood flood-opacity="0" result="BackgroundImageFix"/>
<feBlend mode="normal" in="SourceGraphic" in2="BackgroundImageFix" result="shape"/>
<feColorMatrix in="SourceAlpha" type="matrix" values="0 0 0 0 0 0 0 0 0 0 0 0 0 0 0 0 0 0 127 0" result="hardAlpha"/>
<feOffset dy="5.71429"/>
<feGaussianBlur stdDeviation="2.85714"/>
<feComposite in2="hardAlpha" operator="arithmetic" k2="-1" k3="1"/>
<feColorMatrix type="matrix" values="0 0 0 0 0 0 0 0 0 0.639216 0 0 0 0 0.890196 0 0 0 1 0"/>
<feBlend mode="normal" in2="shape" result="effect1_innerShadow_4892_31851"/>
</filter>
<filter id="filter1_i_4892_31851" x="33.8718" y="-1.29785" width="30.4378" height="30.7367" filterUnits="userSpaceOnUse" color-interpolation-filters="sRGB">
<feFlood flood-opacity="0" result="BackgroundImageFix"/>
<feBlend mode="normal" in="SourceGraphic" in2="BackgroundImageFix" result="shape"/>
<feColorMatrix in="SourceAlpha" type="matrix" values="0 0 0 0 0 0 0 0 0 0 0 0 0 0 0 0 0 0 127 0" result="hardAlpha"/>
<feOffset dy="5.71429"/>
<feGaussianBlur stdDeviation="2.85714"/>
<feComposite in2="hardAlpha" operator="arithmetic" k2="-1" k3="1"/>
<feColorMatrix type="matrix" values="0 0 0 0 0 0 0 0 0 0.639216 0 0 0 0 0.890196 0 0 0 1 0"/>
<feBlend mode="normal" in2="shape" result="effect1_innerShadow_4892_31851"/>
</filter>
<filter id="filter2_i_4892_31851" x="55.7247" y="0" width="27.1598" height="28.759" filterUnits="userSpaceOnUse" color-interpolation-filters="sRGB">
<feFlood flood-opacity="0" result="BackgroundImageFix"/>
<feBlend mode="normal" in="SourceGraphic" in2="BackgroundImageFix" result="shape"/>
<feColorMatrix in="SourceAlpha" type="matrix" values="0 0 0 0 0 0 0 0 0 0 0 0 0 0 0 0 0 0 127 0" result="hardAlpha"/>
<feOffset dy="5.71429"/>
<feGaussianBlur stdDeviation="2.85714"/>
<feComposite in2="hardAlpha" operator="arithmetic" k2="-1" k3="1"/>
<feColorMatrix type="matrix" values="0 0 0 0 0 0 0 0 0 0.639216 0 0 0 0 0.890196 0 0 0 1 0"/>
<feBlend mode="normal" in2="shape" result="effect1_innerShadow_4892_31851"/>
</filter>
<filter id="filter3_i_4892_31851" x="14.8667" y="-0.637451" width="27.7601" height="30.0768" filterUnits="userSpaceOnUse" color-interpolation-filters="sRGB">
<feFlood flood-opacity="0" result="BackgroundImageFix"/>
<feBlend mode="normal" in="SourceGraphic" in2="BackgroundImageFix" result="shape"/>
<feColorMatrix in="SourceAlpha" type="matrix" values="0 0 0 0 0 0 0 0 0 0 0 0 0 0 0 0 0 0 127 0" result="hardAlpha"/>
<feOffset dy="5.71429"/>
<feGaussianBlur stdDeviation="2.85714"/>
<feComposite in2="hardAlpha" operator="arithmetic" k2="-1" k3="1"/>
<feColorMatrix type="matrix" values="0 0 0 0 0 0 0 0 0 0.639216 0 0 0 0 0.890196 0 0 0 1 0"/>
<feBlend mode="normal" in2="shape" result="effect1_innerShadow_4892_31851"/>
</filter>
</defs>
</svg>
