<svg width="22" height="22" viewBox="0 0 22 22" fill="none" xmlns="http://www.w3.org/2000/svg">
<path d="M2 7.4C2 5.15016 2 4.02524 2.57295 3.23664C2.75799 2.98196 2.98196 2.75799 3.23664 2.57295C4.02524 2 5.15016 2 7.4 2H14.6C16.8498 2 17.9748 2 18.7634 2.57295C19.018 2.75799 19.242 2.98196 19.4271 3.23664C20 4.02524 20 5.15016 20 7.4V14.6C20 16.8498 20 17.9748 19.4271 18.7634C19.242 19.018 19.018 19.242 18.7634 19.4271C17.9748 20 16.8498 20 14.6 20H7.4C5.15016 20 4.02524 20 3.23664 19.4271C2.98196 19.242 2.75799 19.018 2.57295 18.7634C2 17.9748 2 16.8498 2 14.6V7.4Z" fill="#CDF1FC"/>
<path d="M8.54466 14.6464L7.77241 15.4298C7.97823 15.6327 8.25564 15.7464 8.54466 15.7464V14.6464ZM9.47482 14.6464V15.7464C9.77007 15.7464 10.0529 15.6277 10.2598 15.417L9.47482 14.6464ZM16.7849 8.77063C17.2105 8.33711 17.2041 7.64066 16.7706 7.21506C16.3371 6.78945 15.6407 6.79586 15.2151 7.22937L16.7849 8.77063ZM6.77225 11.3545C6.33962 10.9279 5.64316 10.9329 5.21666 11.3655C4.79015 11.7982 4.79512 12.4946 5.22775 12.9211L6.77225 11.3545ZM3.23664 19.4271L3.88321 18.5371L3.23664 19.4271ZM2.57295 18.7634L3.46287 18.1168L2.57295 18.7634ZM19.4271 18.7634L18.5371 18.1168L19.4271 18.7634ZM18.7634 19.4271L18.1168 18.5371L18.7634 19.4271ZM18.7634 2.57295L18.1168 3.46287L18.7634 2.57295ZM19.4271 3.23664L18.5371 3.88321L19.4271 3.23664ZM3.23664 2.57295L3.88321 3.46287L3.23664 2.57295ZM2.57295 3.23664L3.46287 3.88321L2.57295 3.23664ZM8.54466 15.7464H9.47482V13.5464H8.54466V15.7464ZM10.2598 15.417L16.7849 8.77063L15.2151 7.22937L8.68987 13.8758L10.2598 15.417ZM5.22775 12.9211L7.77241 15.4298L9.31692 13.8631L6.77225 11.3545L5.22775 12.9211ZM7.4 3.1H14.6V0.9H7.4V3.1ZM18.9 7.4V14.6H21.1V7.4H18.9ZM14.6 18.9H7.4V21.1H14.6V18.9ZM3.1 14.6V7.4H0.9V14.6H3.1ZM7.4 18.9C6.25058 18.9 5.47687 18.8985 4.88884 18.8348C4.3214 18.7733 4.05874 18.6647 3.88321 18.5371L2.59008 20.317C3.20315 20.7624 3.89725 20.9402 4.65187 21.022C5.38591 21.1015 6.29958 21.1 7.4 21.1V18.9ZM0.9 14.6C0.9 15.7004 0.89849 16.6141 0.978018 17.3481C1.05978 18.1028 1.23761 18.7969 1.68303 19.4099L3.46287 18.1168C3.33534 17.9413 3.2267 17.6786 3.16522 17.1112C3.10151 16.5231 3.1 15.7494 3.1 14.6H0.9ZM3.88321 18.5371C3.72191 18.4199 3.58006 18.2781 3.46287 18.1168L1.68303 19.4099C1.93592 19.758 2.24201 20.0641 2.59008 20.317L3.88321 18.5371ZM18.9 14.6C18.9 15.7494 18.8985 16.5231 18.8348 17.1112C18.7733 17.6786 18.6647 17.9413 18.5371 18.1168L20.317 19.4099C20.7624 18.7969 20.9402 18.1028 21.022 17.3481C21.1015 16.6141 21.1 15.7004 21.1 14.6H18.9ZM14.6 21.1C15.7004 21.1 16.6141 21.1015 17.3481 21.022C18.1028 20.9402 18.7969 20.7624 19.4099 20.317L18.1168 18.5371C17.9413 18.6647 17.6786 18.7733 17.1112 18.8348C16.5231 18.8985 15.7494 18.9 14.6 18.9V21.1ZM18.5371 18.1168C18.4199 18.2781 18.2781 18.4199 18.1168 18.5371L19.4099 20.317C19.758 20.0641 20.0641 19.758 20.317 19.4099L18.5371 18.1168ZM14.6 3.1C15.7494 3.1 16.5231 3.10151 17.1112 3.16522C17.6786 3.2267 17.9413 3.33534 18.1168 3.46287L19.4099 1.68303C18.7969 1.23761 18.1028 1.05978 17.3481 0.978018C16.6141 0.89849 15.7004 0.9 14.6 0.9V3.1ZM21.1 7.4C21.1 6.29958 21.1015 5.38591 21.022 4.65187C20.9402 3.89725 20.7624 3.20315 20.317 2.59008L18.5371 3.88321C18.6647 4.05874 18.7733 4.3214 18.8348 4.88884C18.8985 5.47687 18.9 6.25058 18.9 7.4H21.1ZM18.1168 3.46287C18.2781 3.58006 18.4199 3.72191 18.5371 3.88321L20.317 2.59008C20.0641 2.24201 19.758 1.93592 19.4099 1.68303L18.1168 3.46287ZM7.4 0.9C6.29958 0.9 5.38591 0.89849 4.65187 0.978018C3.89725 1.05978 3.20315 1.23761 2.59008 1.68303L3.88321 3.46287C4.05874 3.33534 4.3214 3.2267 4.88884 3.16522C5.47687 3.10151 6.25058 3.1 7.4 3.1V0.9ZM3.1 7.4C3.1 6.25058 3.10151 5.47687 3.16522 4.88884C3.2267 4.3214 3.33534 4.05874 3.46287 3.88321L1.68303 2.59008C1.23761 3.20315 1.05978 3.89725 0.978018 4.65187C0.89849 5.38591 0.9 6.29958 0.9 7.4H3.1ZM2.59008 1.68303C2.24201 1.93592 1.93592 2.24201 1.68303 2.59008L3.46287 3.88321C3.58006 3.72191 3.72191 3.58006 3.88321 3.46287L2.59008 1.68303Z" fill="#00A6E6"/>
</svg>
