<svg width="24" height="24" viewBox="0 0 24 24" fill="none" xmlns="http://www.w3.org/2000/svg">
<path d="M3 8.4C3 6.15016 3 5.02524 3.57295 4.23664C3.75799 3.98196 3.98196 3.75799 4.23664 3.57295C5.02524 3 6.15016 3 8.4 3H15.6C17.8498 3 18.9748 3 19.7634 3.57295C20.018 3.75799 20.242 3.98196 20.4271 4.23664C21 5.02524 21 6.15016 21 8.4V15.6C21 17.8498 21 18.9748 20.4271 19.7634C20.242 20.018 20.018 20.242 19.7634 20.4271C18.9748 21 17.8498 21 15.6 21H8.4C6.15016 21 5.02524 21 4.23664 20.4271C3.98196 20.242 3.75799 20.018 3.57295 19.7634C3 18.9748 3 17.8498 3 15.6V8.4Z" fill="#EEEEEE"/>
<path d="M9.54466 15.6464L8.77241 16.4298C8.97823 16.6327 9.25564 16.7464 9.54466 16.7464V15.6464ZM10.4748 15.6464V16.7464C10.7701 16.7464 11.0529 16.6277 11.2598 16.417L10.4748 15.6464ZM17.7849 9.77063C18.2105 9.33711 18.2041 8.64066 17.7706 8.21506C17.3371 7.78945 16.6407 7.79586 16.2151 8.22937L17.7849 9.77063ZM7.77225 12.3545C7.33962 11.9279 6.64316 11.9329 6.21666 12.3655C5.79015 12.7982 5.79512 13.4946 6.22775 13.9211L7.77225 12.3545ZM4.23664 20.4271L4.88321 19.5371L4.23664 20.4271ZM3.57295 19.7634L4.46287 19.1168L3.57295 19.7634ZM20.4271 19.7634L19.5371 19.1168L20.4271 19.7634ZM19.7634 20.4271L19.1168 19.5371L19.7634 20.4271ZM19.7634 3.57295L19.1168 4.46287L19.7634 3.57295ZM20.4271 4.23664L19.5371 4.88321L20.4271 4.23664ZM4.23664 3.57295L4.88321 4.46287L4.23664 3.57295ZM3.57295 4.23664L4.46287 4.88321L3.57295 4.23664ZM9.54466 16.7464H10.4748V14.5464H9.54466V16.7464ZM11.2598 16.417L17.7849 9.77063L16.2151 8.22937L9.68987 14.8758L11.2598 16.417ZM6.22775 13.9211L8.77241 16.4298L10.3169 14.8631L7.77225 12.3545L6.22775 13.9211ZM8.4 4.1H15.6V1.9H8.4V4.1ZM19.9 8.4V15.6H22.1V8.4H19.9ZM15.6 19.9H8.4V22.1H15.6V19.9ZM4.1 15.6V8.4H1.9V15.6H4.1ZM8.4 19.9C7.25058 19.9 6.47687 19.8985 5.88884 19.8348C5.3214 19.7733 5.05874 19.6647 4.88321 19.5371L3.59008 21.317C4.20315 21.7624 4.89725 21.9402 5.65187 22.022C6.38591 22.1015 7.29958 22.1 8.4 22.1V19.9ZM1.9 15.6C1.9 16.7004 1.89849 17.6141 1.97802 18.3481C2.05978 19.1028 2.23761 19.7969 2.68303 20.4099L4.46287 19.1168C4.33534 18.9413 4.2267 18.6786 4.16522 18.1112C4.10151 17.5231 4.1 16.7494 4.1 15.6H1.9ZM4.88321 19.5371C4.72191 19.4199 4.58006 19.2781 4.46287 19.1168L2.68303 20.4099C2.93592 20.758 3.24201 21.0641 3.59008 21.317L4.88321 19.5371ZM19.9 15.6C19.9 16.7494 19.8985 17.5231 19.8348 18.1112C19.7733 18.6786 19.6647 18.9413 19.5371 19.1168L21.317 20.4099C21.7624 19.7969 21.9402 19.1028 22.022 18.3481C22.1015 17.6141 22.1 16.7004 22.1 15.6H19.9ZM15.6 22.1C16.7004 22.1 17.6141 22.1015 18.3481 22.022C19.1028 21.9402 19.7969 21.7624 20.4099 21.317L19.1168 19.5371C18.9413 19.6647 18.6786 19.7733 18.1112 19.8348C17.5231 19.8985 16.7494 19.9 15.6 19.9V22.1ZM19.5371 19.1168C19.4199 19.2781 19.2781 19.4199 19.1168 19.5371L20.4099 21.317C20.758 21.0641 21.0641 20.758 21.317 20.4099L19.5371 19.1168ZM15.6 4.1C16.7494 4.1 17.5231 4.10151 18.1112 4.16522C18.6786 4.2267 18.9413 4.33534 19.1168 4.46287L20.4099 2.68303C19.7969 2.23761 19.1028 2.05978 18.3481 1.97802C17.6141 1.89849 16.7004 1.9 15.6 1.9V4.1ZM22.1 8.4C22.1 7.29958 22.1015 6.38591 22.022 5.65187C21.9402 4.89725 21.7624 4.20315 21.317 3.59008L19.5371 4.88321C19.6647 5.05874 19.7733 5.3214 19.8348 5.88884C19.8985 6.47687 19.9 7.25058 19.9 8.4H22.1ZM19.1168 4.46287C19.2781 4.58006 19.4199 4.72191 19.5371 4.88321L21.317 3.59008C21.0641 3.24201 20.758 2.93592 20.4099 2.68303L19.1168 4.46287ZM8.4 1.9C7.29958 1.9 6.38591 1.89849 5.65187 1.97802C4.89725 2.05978 4.20315 2.23761 3.59008 2.68303L4.88321 4.46287C5.05874 4.33534 5.3214 4.2267 5.88884 4.16522C6.47687 4.10151 7.25058 4.1 8.4 4.1V1.9ZM4.1 8.4C4.1 7.25058 4.10151 6.47687 4.16522 5.88884C4.2267 5.3214 4.33534 5.05874 4.46287 4.88321L2.68303 3.59008C2.23761 4.20315 2.05978 4.89725 1.97802 5.65187C1.89849 6.38591 1.9 7.29958 1.9 8.4H4.1ZM3.59008 2.68303C3.24201 2.93592 2.93592 3.24201 2.68303 3.59008L4.46287 4.88321C4.58006 4.72191 4.72191 4.58006 4.88321 4.46287L3.59008 2.68303Z" fill="#868686"/>
</svg>
