<svg width="24" height="24" viewBox="0 0 24 24" fill="none" xmlns="http://www.w3.org/2000/svg">
<path d="M4.23664 20.4271L4.88321 19.5371L4.23664 20.4271ZM3.57295 19.7634L4.46287 19.1168L3.57295 19.7634ZM20.4271 19.7634L19.5371 19.1168L20.4271 19.7634ZM19.7634 20.4271L19.1168 19.5371L19.7634 20.4271ZM19.7634 3.57295L19.1168 4.46287L19.7634 3.57295ZM20.4271 4.23664L19.5371 4.88321L20.4271 4.23664ZM4.23664 3.57295L4.88321 4.46287L4.23664 3.57295ZM3.57295 4.23664L4.46287 4.88321L3.57295 4.23664ZM8.4 4.1H15.6V1.9H8.4V4.1ZM19.9 8.4V15.6H22.1V8.4H19.9ZM15.6 19.9H8.4V22.1H15.6V19.9ZM4.1 15.6V8.4H1.9V15.6H4.1ZM8.4 19.9C7.25058 19.9 6.47687 19.8985 5.88884 19.8348C5.3214 19.7733 5.05874 19.6647 4.88321 19.5371L3.59008 21.317C4.20315 21.7624 4.89725 21.9402 5.65187 22.022C6.38591 22.1015 7.29958 22.1 8.4 22.1V19.9ZM1.9 15.6C1.9 16.7004 1.89849 17.6141 1.97802 18.3481C2.05978 19.1028 2.23761 19.7969 2.68303 20.4099L4.46287 19.1168C4.33534 18.9413 4.2267 18.6786 4.16522 18.1112C4.10151 17.5231 4.1 16.7494 4.1 15.6H1.9ZM4.88321 19.5371C4.72191 19.4199 4.58006 19.2781 4.46287 19.1168L2.68303 20.4099C2.93592 20.758 3.24201 21.0641 3.59008 21.317L4.88321 19.5371ZM19.9 15.6C19.9 16.7494 19.8985 17.5231 19.8348 18.1112C19.7733 18.6786 19.6647 18.9413 19.5371 19.1168L21.317 20.4099C21.7624 19.7969 21.9402 19.1028 22.022 18.3481C22.1015 17.6141 22.1 16.7004 22.1 15.6H19.9ZM15.6 22.1C16.7004 22.1 17.6141 22.1015 18.3481 22.022C19.1028 21.9402 19.7969 21.7624 20.4099 21.317L19.1168 19.5371C18.9413 19.6647 18.6786 19.7733 18.1112 19.8348C17.5231 19.8985 16.7494 19.9 15.6 19.9V22.1ZM19.5371 19.1168C19.4199 19.2781 19.2781 19.4199 19.1168 19.5371L20.4099 21.317C20.758 21.0641 21.0641 20.758 21.317 20.4099L19.5371 19.1168ZM15.6 4.1C16.7494 4.1 17.5231 4.10151 18.1112 4.16522C18.6786 4.2267 18.9413 4.33534 19.1168 4.46287L20.4099 2.68303C19.7969 2.23761 19.1028 2.05978 18.3481 1.97802C17.6141 1.89849 16.7004 1.9 15.6 1.9V4.1ZM22.1 8.4C22.1 7.29958 22.1015 6.38591 22.022 5.65187C21.9402 4.89725 21.7624 4.20315 21.317 3.59008L19.5371 4.88321C19.6647 5.05874 19.7733 5.3214 19.8348 5.88884C19.8985 6.47687 19.9 7.25058 19.9 8.4H22.1ZM19.1168 4.46287C19.2781 4.58006 19.4199 4.72191 19.5371 4.88321L21.317 3.59008C21.0641 3.24201 20.758 2.93592 20.4099 2.68303L19.1168 4.46287ZM8.4 1.9C7.29958 1.9 6.38591 1.89849 5.65187 1.97802C4.89725 2.05978 4.20315 2.23761 3.59008 2.68303L4.88321 4.46287C5.05874 4.33534 5.3214 4.2267 5.88884 4.16522C6.47687 4.10151 7.25058 4.1 8.4 4.1V1.9ZM4.1 8.4C4.1 7.25058 4.10151 6.47687 4.16522 5.88884C4.2267 5.3214 4.33534 5.05874 4.46287 4.88321L2.68303 3.59008C2.23761 4.20315 2.05978 4.89725 1.97802 5.65187C1.89849 6.38591 1.9 7.29958 1.9 8.4H4.1ZM3.59008 2.68303C3.24201 2.93592 2.93592 3.24201 2.68303 3.59008L4.46287 4.88321C4.58006 4.72191 4.72191 4.58006 4.88321 4.46287L3.59008 2.68303Z" fill="#121212" fill-opacity="0.4"/>
</svg>
