<svg aria-hidden="true" class="aria-hidden" version="1.1" xmlns="http://www.w3.org/2000/svg" xmlns:xlink="http://www.w3.org/1999/xlink">
<defs>
<symbol id="icon-Refresh" viewBox="0 0 24 24">
<title>Refresh</title>
<path d="M17.65 6.35c-1.45-1.45-3.44-2.35-5.65-2.35-4.42 0-7.99 3.58-7.99 8s3.57 8 7.99 8c3.73 0 6.84-2.55 7.73-6h-2.080c-0.82 2.33-3.040 4-5.65 4-3.31 0-6-2.69-6-6s2.69-6 6-6c1.66 0 3.14 0.69 4.22 1.78l-3.22 3.22h7v-7l-2.35 2.35z"></path>
</symbol>
<symbol id="icon-Info" viewBox="0 0 24 24">
<title>Info</title>
<path fill="#4a4a49" class="fill-color1-4a4a49" d="M11 7h2v2h-2v-2zM11 11h2v6h-2v-6zM12 2c-5.52 0-10 4.48-10 10s4.48 10 10 10c5.52 0 10-4.48 10-10s-4.48-10-10-10zM12 20c-4.41 0-8-3.59-8-8s3.59-8 8-8c4.41 0 8 3.59 8 8s-3.59 8-8 8z"></path>
</symbol>
<symbol id="icon-re-order" viewBox="0 0 24 24">
<title>re-order</title>
<path fill="#4a4a49" class="fill-color1-4a4a49" d="M20 4v12h-12v-12h12zM20 2h-12c-1.1 0-2 0.9-2 2v12c0 1.1 0.9 2 2 2h12c1.1 0 2-0.9 2-2v-12c0-1.1-0.9-2-2-2zM11.5 11.67l1.69 2.26 2.48-3.1 3.33 4.17h-10l2.5-3.33zM2 6v14c0 1.1 0.9 2 2 2h14v-2h-14v-14h-2z"></path>
</symbol>
<symbol id="icon-photo-add" viewBox="0 0 24 24">
<title>photo-add</title>
<path fill="#4a4a49" class="fill-color1-4a4a49" d="M21 6h-3.17l-1.83-2h-6v2h5.12l1.83 2h4.050v12h-16v-9h-2v9c0 1.1 0.9 2 2 2h16c1.1 0 2-0.9 2-2v-12c0-1.1-0.9-2-2-2zM8 14c0 2.76 2.24 5 5 5s5-2.24 5-5c0-2.76-2.24-5-5-5s-5 2.24-5 5zM13 11c1.65 0 3 1.35 3 3s-1.35 3-3 3c-1.65 0-3-1.35-3-3s1.35-3 3-3zM5 6h3v-2h-3v-3h-2v3h-3v2h3v3h2v-3z"></path>
</symbol>
<symbol id="icon-home" viewBox="0 0 24 24">
<title>home</title>
<path d="M12 5.69l5 4.5v7.81h-2v-6h-6v6h-2v-7.81l5-4.5zM12 3l-10 9h3v8h6v-6h2v6h6v-8h3l-10-9z"></path>
</symbol>
<symbol id="icon-crop" viewBox="0 0 24 24">
<title>crop</title>
<path fill="#4a4a49" class="fill-color1-4a4a49" d="M17 15h2v-8c0-1.1-0.9-2-2-2h-8v2h8v8zM7 17v-16h-2v4h-4v2h4v10c0 1.1 0.9 2 2 2h10v4h2v-4h4v-2h-16z"></path>
</symbol>
<symbol id="icon-rotate-l" viewBox="0 0 24 24">
<title>rotate-l</title>
<path fill="#4a4a49" class="fill-color1-4a4a49" d="M7.11 8.53l-1.41-1.42c-0.9 1.16-1.46 2.5-1.63 3.89h2.020c0.14-0.87 0.49-1.72 1.020-2.47v0zM6.090 13h-2.020c0.17 1.39 0.72 2.73 1.62 3.89l1.41-1.42c-0.52-0.75-0.87-1.59-1.010-2.47v0zM7.1 18.32c1.16 0.9 2.51 1.44 3.9 1.61v-2.030c-0.87-0.15-1.71-0.49-2.46-1.030l-1.44 1.45zM13 4.070v-3.070l-4.55 4.55 4.55 4.45v-3.91c2.84 0.48 5 2.94 5 5.91s-2.16 5.43-5 5.91v2.020c3.95-0.49 7-3.85 7-7.93s-3.050-7.44-7-7.93z"></path>
</symbol>
<symbol id="icon-rotate-r" viewBox="0 0 24 24">
<title>rotate-r</title>
<path d="M15.55 5.55l-4.55-4.55v3.070c-3.94 0.49-7 3.85-7 7.93s3.050 7.44 7 7.93v-2.020c-2.84-0.48-5-2.94-5-5.91s2.16-5.43 5-5.91v3.91l4.55-4.45zM19.93 11c-0.17-1.39-0.72-2.73-1.62-3.89l-1.42 1.42c0.54 0.75 0.88 1.6 1.020 2.47h2.020zM13 17.9v2.020c1.39-0.17 2.74-0.71 3.9-1.61l-1.44-1.44c-0.75 0.54-1.59 0.89-2.46 1.030zM16.89 15.48l1.42 1.41c0.9-1.16 1.45-2.5 1.62-3.89h-2.020c-0.14 0.87-0.48 1.72-1.020 2.48v0z"></path>
</symbol>
<symbol id="icon-grid" viewBox="0 0 24 24">
<title>grid</title>
<path fill="#4a4a49" class="fill-color1-4a4a49" d="M10 13c0.552 0 1 0.448 1 1v7c0 0.552-0.448 1-1 1h-7c-0.552 0-1-0.448-1-1v-7c0-0.552 0.448-1 1-1h7zM21 13c0.552 0 1 0.448 1 1v7c0 0.552-0.448 1-1 1h-7c-0.552 0-1-0.448-1-1v-7c0-0.552 0.448-1 1-1h7zM10 2c0.552 0 1 0.448 1 1v7c0 0.552-0.448 1-1 1h-7c-0.552 0-1-0.448-1-1v-7c0-0.552 0.448-1 1-1h7zM21 2c0.552 0 1 0.448 1 1v7c0 0.552-0.448 1-1 1h-7c-0.552 0-1-0.448-1-1v-7c0-0.552 0.448-1 1-1h7z"></path>
</symbol>
<symbol id="icon-list" viewBox="0 0 24 24">
<title>list</title>
<path d="M3 2h1c0.552 0 1 0.448 1 1v1c0 0.552-0.448 1-1 1h-1c-0.552 0-1-0.448-1-1v-1c0-0.552 0.448-1 1-1z"></path>
<path d="M3 10h1c0.552 0 1 0.448 1 1v1c0 0.552-0.448 1-1 1h-1c-0.552 0-1-0.448-1-1v-1c0-0.552 0.448-1 1-1z"></path>
<path d="M3 18h1c0.552 0 1 0.448 1 1v1c0 0.552-0.448 1-1 1h-1c-0.552 0-1-0.448-1-1v-1c0-0.552 0.448-1 1-1z"></path>
<path d="M8 2h13c0.552 0 1 0.448 1 1v1c0 0.552-0.448 1-1 1h-13c-0.552 0-1-0.448-1-1v-1c0-0.552 0.448-1 1-1z"></path>
<path d="M8 10h13c0.552 0 1 0.448 1 1v1c0 0.552-0.448 1-1 1h-13c-0.552 0-1-0.448-1-1v-1c0-0.552 0.448-1 1-1z"></path>
<path d="M8 18h13c0.552 0 1 0.448 1 1v1c0 0.552-0.448 1-1 1h-13c-0.552 0-1-0.448-1-1v-1c0-0.552 0.448-1 1-1z"></path>
</symbol>
<symbol id="icon-3rd-party" viewBox="0 0 24 24">
<title>3rd-party</title>
<path fill="#4a4a49" class="fill-color1-4a4a49" d="M17.297 7.348c0.783 0 1.426 0.646 1.426 1.435s-0.643 1.435-1.426 1.435c-0.784 0-1.426-0.647-1.426-1.435s0.642-1.435 1.426-1.435v0zM15.802 7.826c0 0.946-0.354 1.801-0.919 2.469 0.503 0.813 1.392 1.357 2.414 1.357 1.575 0 2.851-1.285 2.851-2.87s-1.276-2.87-2.851-2.87c-0.657 0-1.255 0.231-1.737 0.607 0.147 0.409 0.241 0.845 0.241 1.306v0zM17.297 12.37c-0.791 0-1.908 0.168-2.946 0.498 0.857 0.17 1.745 0.426 2.546 0.762 0.134-0.009 0.267-0.026 0.399-0.026 1.924 0 4.135 1.096 4.277 1.701v0.85h-2.005c0.013 0.093 0.034 0.183 0.034 0.279v0.957h3.396v-2.152c0-1.908-3.8-2.87-5.703-2.87v0zM6.703 7.348c0.784 0 1.426 0.646 1.426 1.435s-0.642 1.435-1.426 1.435-1.426-0.647-1.426-1.435c0-0.789 0.642-1.435 1.426-1.435v0zM6.703 11.652c1.022 0 1.91-0.545 2.415-1.357-0.566-0.668-0.92-1.523-0.92-2.469 0-0.461 0.093-0.896 0.242-1.306-0.483-0.376-1.080-0.607-1.737-0.607-1.576 0-2.851 1.284-2.851 2.87s1.276 2.87 2.851 2.87v0zM4.396 16.435c0-0.097 0.020-0.187 0.035-0.279h-2.006v-0.842c0.143-0.613 2.352-1.709 4.277-1.709 0.131 0 0.266 0.017 0.398 0.026 0.801-0.337 1.691-0.592 2.546-0.762-1.037-0.33-2.153-0.498-2.945-0.498-1.903 0-5.703 0.961-5.703 2.87v2.152h3.396v-0.957zM12 12.609c-2.538 0-7.604 1.282-7.604 3.826v2.87h15.208v-2.87c0-2.544-5.066-3.826-7.604-3.826v0zM12 4c-2.101 0-3.802 1.711-3.802 3.826s1.701 3.826 3.802 3.826 3.802-1.712 3.802-3.826c0-2.115-1.701-3.826-3.802-3.826v0zM12 14.256c2.566 0 5.513 1.463 5.703 2.267v1.133h-11.406v-1.122c0.19-0.816 3.137-2.278 5.703-2.278v0zM12 5.913c1.046 0 1.901 0.86 1.901 1.913s-0.855 1.913-1.901 1.913-1.901-0.861-1.901-1.913c0-1.053 0.855-1.913 1.901-1.913v0z"></path>
</symbol>
<symbol id="icon-setting" viewBox="0 0 24 24">
<title>setting</title>
<path fill="#4a4a49" class="fill-color1-4a4a49" d="M11.752 9.727c-1.253 0-2.273 1.020-2.273 2.273s1.020 2.273 2.273 2.273c1.254 0 2.273-1.020 2.273-2.273s-1.019-2.273-2.273-2.273v0zM11.752 16.091c-2.255 0-4.091-1.835-4.091-4.091s1.835-4.091 4.091-4.091c2.255 0 4.091 1.835 4.091 4.091s-1.835 4.091-4.091 4.091v0zM10.331 20.182h2.842l0.363-2.525 0.481-0.198c0.445-0.182 0.882-0.435 1.335-0.775l0.409-0.308 2.365 0.949 1.424-2.464-2.009-1.571 0.064-0.511c0.033-0.255 0.057-0.508 0.057-0.778s-0.025-0.525-0.057-0.778l-0.064-0.511 2.009-1.571-1.425-2.465-2.371 0.952-0.412-0.316c-0.424-0.326-0.857-0.578-1.325-0.77l-0.481-0.197-0.363-2.525h-2.842l-0.362 2.525-0.482 0.197c-0.445 0.183-0.882 0.436-1.335 0.777l-0.409 0.306-2.364-0.948-1.425 2.464 2.008 1.571-0.064 0.511c-0.032 0.254-0.056 0.516-0.056 0.778s0.025 0.524 0.056 0.778l0.064 0.511-2.008 1.571 1.425 2.465 2.37-0.953 0.412 0.317c0.424 0.325 0.858 0.577 1.326 0.77l0.482 0.197 0.362 2.525zM13.57 22h-3.636c-0.684 0-1.263-0.506-1.347-1.177l-0.273-1.901c-0.285-0.142-0.562-0.304-0.832-0.483l-1.8 0.722c-0.658 0.239-1.374-0.025-1.692-0.607l-1.807-3.126c-0.333-0.61-0.188-1.338 0.332-1.75l1.528-1.195c-0.013-0.17-0.018-0.329-0.018-0.483s0.005-0.313 0.018-0.484l-1.524-1.191c-0.535-0.424-0.675-1.179-0.332-1.761l1.814-3.137c0.315-0.577 1.040-0.838 1.673-0.593l1.812 0.728c0.275-0.184 0.55-0.344 0.827-0.484l0.275-1.917c0.083-0.655 0.662-1.162 1.345-1.162h3.636c0.684 0 1.264 0.506 1.347 1.177l0.273 1.901c0.285 0.142 0.562 0.303 0.831 0.483l1.801-0.723c0.663-0.242 1.374 0.026 1.692 0.608l1.807 3.125c0.334 0.61 0.189 1.338-0.333 1.751l-1.527 1.194c0.011 0.152 0.018 0.315 0.018 0.484s-0.007 0.332-0.018 0.484l1.524 1.19c0.525 0.415 0.671 1.144 0.347 1.735l-1.829 3.164c-0.315 0.575-1.037 0.84-1.672 0.592l-1.813-0.727c-0.275 0.184-0.55 0.344-0.828 0.484l-0.275 1.916c-0.082 0.656-0.662 1.163-1.345 1.163v0z"></path>
</symbol>
<symbol id="icon-save-primary" viewBox="0 0 24 24">
<title>save-primary</title>
<path fill="#4a4a49" class="fill-color1-4a4a49" d="M17 3h-12c-1.11 0-2 0.9-2 2v14c0 1.1 0.89 2 2 2h14c1.1 0 2-0.9 2-2v-12l-4-4zM12 19c-1.66 0-3-1.34-3-3s1.34-3 3-3c1.66 0 3 1.34 3 3s-1.34 3-3 3zM15 9h-10v-4h10v4z"></path>
</symbol>
<symbol id="icon-add" viewBox="0 0 24 24">
<title>add</title>
<path fill="#4a4a49" class="fill-color1-4a4a49" d="M12 0c6.627 0 12 5.373 12 12s-5.373 12-12 12c-6.627 0-12-5.373-12-12s5.373-12 12-12zM12 1.846c-5.608 0-10.154 4.546-10.154 10.154s4.546 10.154 10.154 10.154c5.608 0 10.154-4.546 10.154-10.154s-4.546-10.154-10.154-10.154zM13 5l0.001 6h5.999v2h-6v6h-2v-6h-6v-2h6.001l-0.001-6h2z"></path>
</symbol>
<symbol id="icon-Drop-up" viewBox="0 0 24 24">
<title>Drop-up</title>
<path fill="#4a4a49" class="fill-color1-4a4a49" d="M12.5 8l-5.5 8h11z"></path>
</symbol>
<symbol id="icon-Export" viewBox="0 0 24 24">
<title>Export</title>
<path fill="#4a4a49" class="fill-color1-4a4a49" d="M22.057 10.8c0.521 0 0.943 0.422 0.943 0.943v0 9.861c0 0.521-0.422 0.943-0.943 0.943v0h-20.114c-0.521 0-0.943-0.422-0.943-0.943v0-9.861c0-0.521 0.422-0.943 0.943-0.943s0.943 0.422 0.943 0.943v0 8.918h18.229v-8.918c0-0.521 0.422-0.943 0.943-0.943zM11.411 2.207c0.344-0.275 0.834-0.275 1.178 0v0l6.286 5.029c0.407 0.325 0.473 0.919 0.147 1.325s-0.919 0.473-1.325 0.147v0l-4.755-3.804 0.001 11.867c0 0.484-0.364 0.882-0.833 0.937l-0.11 0.006c-0.521 0-0.943-0.422-0.943-0.943v0l-0-11.867-4.754 3.804c-0.375 0.3-0.91 0.267-1.246-0.059l-0.080-0.088c-0.325-0.407-0.259-1 0.147-1.325v0z"></path>
</symbol>
<symbol id="icon-Blank" viewBox="0 0 24 24">
<title>Blank</title>
<path fill="#fff" class="fill-color2-fff" d="M19 5v14h-14v-14h14zM19 3h-14c-1.1 0-2 0.9-2 2v14c0 1.1 0.9 2 2 2h14c1.1 0 2-0.9 2-2v-14c0-1.1-0.9-2-2-2z"></path>
</symbol>
<symbol id="icon-Blank1" viewBox="0 0 24 24">
<title>Blank1</title>
<path fill="#fff" class="fill-color2-fff" d="M12 2c-5.52 0-10 4.48-10 10s4.48 10 10 10c5.52 0 10-4.48 10-10s-4.48-10-10-10zM12 20c-4.42 0-8-3.58-8-8s3.58-8 8-8c4.42 0 8 3.58 8 8s-3.58 8-8 8z"></path>
</symbol>
<symbol id="icon-Mixed" viewBox="0 0 24 24">
<path d="M19 3c1.1 0 2 0.9 2 2v0 14c0 1.1-0.9 2-2 2v0h-14c-1.1 0-2-0.9-2-2v0-14c0-1.1 0.9-2 2-2v0zM17 11h-10v2.4h10v-2.4z"></path>
<title>Mixed</title>
</symbol>
<symbol id="icon-Selected" viewBox="0 0 24 24">
<title>Selected</title>
<path d="M19 3c1.1 0 2 0.9 2 2v0 14c0 1.1-0.9 2-2 2v0h-14c-1.1 0-2-0.9-2-2v0-14c0-1.1 0.9-2 2-2v0zM16.58 7.59l-6.59 6.59-2.58-2.58-1.41 1.41 3.99 3.99 8-8-1.41-1.41z"></path>
</symbol>
<symbol id="icon-Selected1" viewBox="0 0 24 24">
<title>Selected1</title>
<path d="M12 2c5.52 0 10 4.48 10 10s-4.48 10-10 10c-5.52 0-10-4.48-10-10s4.48-10 10-10zM12 4c-4.42 0-8 3.58-8 8s3.58 8 8 8c4.42 0 8-3.58 8-8s-3.58-8-8-8zM12 7c2.761 0 5 2.239 5 5s-2.239 5-5 5c-2.761 0-5-2.239-5-5s2.239-5 5-5z"></path>
</symbol>
<symbol id="icon-Product-Selected" viewBox="0 0 24 24">
<title>Product-Selected</title>
<path d="M12 2c-5.52 0-10 4.48-10 10s4.48 10 10 10c5.52 0 10-4.48 10-10s-4.48-10-10-10zM10 17l-5-5 1.41-1.41 3.59 3.58 7.59-7.59 1.41 1.42-9 9z"></path>
</symbol>
<symbol id="icon-Menu-Burger" viewBox="0 0 24 24">
<title>Menu-Burger</title>
<path d="M24 18.36v2.88h-24v-2.88h24zM24 10.68v2.88h-24v-2.88h24zM24 3v2.88h-24v-2.88h24z"></path>
</symbol>
<symbol id="icon-Reset" viewBox="0 0 24 24">
<title>Reset</title>
<path d="M13.714 2c-5.68 0-10.286 4.606-10.286 10.286h-3.429l4.571 4.571 4.571-4.571h-3.429c0-4.423 3.577-8 8-8s8 3.577 8 8c0 4.423-3.577 8-8 8-1.726 0-3.326-0.56-4.64-1.486l-1.623 1.646c1.737 1.326 3.909 2.126 6.263 2.126 5.68 0 10.286-4.606 10.286-10.286s-4.606-10.286-10.286-10.286z"></path>
</symbol>
<symbol id="icon-Sign" viewBox="0 0 24 24">
<title>Sign</title>
<path d="M13.968 4.821l4.4 4.4-6.021 6.021c2.084-1.042 4.053-1.853 4.747-1.853v0l0.012 0.004c0.064 0.022 0.361 0.125 0.567 0.227 0.232 0.232 0.463 0.579 0.463 0.579 0.347 0.926-0.232 1.737-2.084 4.168-0.232 0.232-0.463 0.463-0.695 0.811 0.232-0.232 0.463-0.347 0.579-0.463 1.389-1.158 2.2-1.737 3.011-1.737 0.463 0 0.926 0.232 1.158 0.579 0.347 0.579 0.232 1.274-0.116 2.084 0.463-0.347 1.042-0.695 1.621-1.042v0l1.389 1.853c-0.463 0.232-0.811 0.579-1.274 0.811-1.389 0.811-2.663 1.505-3.474 1.505-0.463 0-0.926-0.232-1.158-0.579-0.347-0.463-0.347-1.042-0.116-1.621-1.389 1.158-2.895 2.2-4.168 2.2-0.579 0-1.042-0.347-1.274-0.811-0.463-1.042 0.347-2.2 2.663-5.326 0 0 0.116-0.116 0.116-0.116-2.895 1.389-7.179 3.705-8.916 5.326v0h-4.4v-4.4l12.968-12.621zM13.853 7.947l-10.537 10.537v1.042h1.042l10.537-10.537-1.042-1.042zM18.021 1c0.232 0 0.579 0.116 0.811 0.347v0l2.663 2.663c0.463 0.463 0.463 1.158 0 1.621v0l-1.968 2.2-4.4-4.4 2.084-2.084c0.232-0.232 0.463-0.347 0.811-0.347z"></path>
</symbol>
<symbol id="icon-File" viewBox="0 0 24 24">
<title>File</title>
<path d="M20 8l-6-6h-8c-1.1 0-1.99 0.9-1.99 2l-0.010 16c0 1.1 0.89 2 1.99 2h12.010c1.1 0 2-0.9 2-2v-12zM18 20h-12v-16h7v5h5v11z"></path>
</symbol>
<symbol id="icon-Drop-Down" viewBox="0 0 24 24">
<title>Drop-Down</title>
<path d="M12.5 16l-5.5-8h11z"></path>
</symbol>
<symbol id="icon-Direction-Down" viewBox="0 0 24 24">
<title>Direction-Down</title>
<path d="M0.21967 8.53033C0.512563 8.82322 0.987437 8.82322 1.28033 8.53033L8 1.81066L14.7197 8.53033C15.0126 8.82322 15.4874 8.82322 15.7803 8.53033C16.0732 8.23744 16.0732 7.76256 15.7803 7.46967L8.53033 0.21967C8.23744 -0.0732232 7.76256 -0.0732232 7.46967 0.21967L0.21967 7.46967C-0.0732233 7.76256 -0.0732233 8.23744 0.21967 8.53033Z"></path>
</symbol>
<symbol id="icon-Direction-Right" viewBox="0 0 24 24">
<title>Direction-Right</title>
<path d="M7.714 22l-1.714-1.667 8.572-8.332-8.572-8.334 1.714-1.667 10.286 10-10.286 10z"></path>
</symbol>
<symbol id="icon-Direction-UP" viewBox="0 0 24 24">
<title>Direction-UP</title>
<path d="M22 16.286l-1.667 1.714-8.332-8.572-8.334 8.572-1.667-1.714 10-10.286 10 10.286z"></path>
</symbol>
<symbol id="icon-Direction-Left" viewBox="0 0 24 24">
<title>Direction-Left</title>
<path d="M16.286 2l1.714 1.667-8.572 8.332 8.572 8.334-1.714 1.667-10.286-10 10.286-10z"></path>
</symbol>
<symbol id="icon-Cross" viewBox="0 0 24 24">
<title>Cross</title>
<path d="M19.778 5.636l-6.364 6.364 6.364 6.364-1.414 1.414-6.364-6.364-6.364 6.364-1.414-1.414 6.365-6.365-6.365-6.363 1.414-1.414 6.365 6.363 6.363-6.363 1.414 1.414z"></path>
</symbol>
<symbol id="icon-Mark" viewBox="0 0 24 24">
<title>Mark</title>
<path d="M8.067 16.483l-4.55-4.55-1.517 1.517 6.067 6.067 13-13-1.517-1.517z"></path>
</symbol>
<symbol id="icon-ID-Card" viewBox="0 0 24 24">
<title>ID-Card</title>
<path d="M20 4h-16c-1.11 0-1.99 0.89-1.99 2l-0.010 12c0 1.11 0.89 2 2 2h16c1.11 0 2-0.89 2-2v-12c0-1.11-0.89-2-2-2zM20 18h-16v-12h16v12zM20 10h-16v-2h16v2zM16 14.25c-0.668 0-2 0.335-2 1v0.75h4v-0.75c0-0.665-1.332-1-2-1zM16 12c-0.552 0-1 0.447-1 1s0.447 1 1 1c0.552 0 1-0.447 1-1s-0.447-1-1-1z"></path>
</symbol>
<symbol id="icon-Card" viewBox="0 0 24 24">
<title>Card</title>
<path d="M20 4h-16c-1.11 0-1.99 0.89-1.99 2l-0.010 12c0 1.11 0.89 2 2 2h16c1.11 0 2-0.89 2-2v-12c0-1.11-0.89-2-2-2zM20 18h-16v-6h16v6zM20 8h-16v-2h16v2z"></path>
</symbol>
<symbol id="icon-Email" viewBox="0 0 24 24">
<title>Email</title>
<path d="M22 6c0-1.1-0.9-2-2-2h-16c-1.1 0-2 0.9-2 2v12c0 1.1 0.9 2 2 2h16c1.1 0 2-0.9 2-2v-12zM20 6l-8 5-8-5h16zM20 18h-16v-10l8 5 8-5v10z"></path>
</symbol>
<symbol id="icon-Phone" viewBox="0 0 24 24">
<title>Phone</title>
<path d="M7.5 3h-3.5c-0.55 0-1 0.45-1 1 0 9.39 7.61 17 17 17 0.55 0 1-0.45 1-1v-3.49c0-0.55-0.45-1-1-1-1.24 0-2.45-0.2-3.57-0.57-0.1-0.040-0.21-0.050-0.31-0.050-0.26 0-0.51 0.1-0.71 0.29l-2.2 2.2c-2.83-1.45-5.15-3.76-6.59-6.59l2.2-2.2c0.28-0.28 0.36-0.67 0.25-1.020-0.37-1.12-0.57-2.32-0.57-3.57 0-0.55-0.45-1-1-1zM16.4 17.020c0.85 0.24 1.72 0.39 2.6 0.45v1.49c-1.32-0.090-2.59-0.35-3.8-0.75l1.2-1.19zM6.54 5c0.060 0.89 0.21 1.76 0.45 2.59l-1.2 1.2c-0.41-1.2-0.67-2.47-0.76-3.79h1.51z"></path>
</symbol>
<symbol id="icon-User" viewBox="0 0 24 24">
<title>User</title>
<path d="M12 13.125c-3.004 0-9 1.507-9 4.5v3.375h18v-3.375c0-2.993-5.996-4.5-9-4.5zM12 3c-2.486 0-4.5 2.014-4.5 4.5s2.014 4.5 4.5 4.5c2.486 0 4.5-2.014 4.5-4.5s-2.014-4.5-4.5-4.5zM12 15.063c3.038 0 6.525 1.72 6.75 2.667v1.333h-13.5v-1.32c0.225-0.96 3.712-2.68 6.75-2.68zM12 5.25c1.237 0 2.25 1.012 2.25 2.25s-1.013 2.25-2.25 2.25c-1.238 0-2.25-1.012-2.25-2.25s1.012-2.25 2.25-2.25z"></path>
</symbol>
<symbol id="icon-Edit" viewBox="0 0 24 24">
<title>Edit</title>
<path d="M14.060 6.19l-11.060 11.060v3.75h3.75l11.060-11.060-3.75-3.75zM17.661 3c-0.25 0-0.51 0.1-0.701 0.29l-1.83 1.83 3.75 3.75 1.83-1.83c0.39-0.39 0.39-1.020 0-1.41l-2.339-2.34c-0.201-0.2-0.451-0.29-0.71-0.29v0zM14.060 9.020l0.921 0.92-9.061 9.060h-0.92v-0.92l9.060-9.060z"></path>
</symbol>
<symbol id="icon-New-Case" viewBox="0 0 24 24">
<title>New-Case</title>
<path d="M17 20.22h-12v-12.22h7v-2h-7c-1.1 0-2 0.9-2 2v12c0 1.1 0.9 2 2 2h12c1.1 0 2-0.9 2-2v-7h-2v7.22zM19 3h-2v3h-3c0.010 0.010 0 2 0 2h3v2.99c0.010 0.010 2 0 2 0v-2.99h3v-2h-3v-3zM7 12h8v-2h-8v2zM7 13v2h8v-2h-8zM7 18h8v-2h-8v2z"></path>
</symbol>
<symbol id="icon-Arrow-Down" viewBox="0 0 24 24">
<title>Arrow-Down</title>
<path d="M12 20l8.001-8-1.415-1.413-5.586 5.585v-12.172h-2v12.172l-5.586-5.585-1.414 1.413z"></path>
</symbol>
<symbol id="icon-Arrow-Right" viewBox="0 0 24 24">
<title>Arrow-Right</title>
<path d="M20 12l-8-8.001-1.413 1.415 5.585 5.586h-12.172v2h12.172l-5.585 5.586 1.413 1.414z"></path>
</symbol>
<symbol id="icon-Arrow-Up" viewBox="0 0 24 24">
<title>Arrow-Up</title>
<path d="M12 4l-8.001 8 1.415 1.413 5.586-5.585v12.172h2v-12.172l5.586 5.585 1.414-1.413z"></path>
</symbol>
<symbol id="icon-Arrow-Left" viewBox="0 0 24 24">
<title>Arrow-Left</title>
<path d="M4 12l8 8.001 1.413-1.415-5.585-5.586h12.172v-2h-12.172l5.585-5.586-1.413-1.414z"></path>
</symbol>
<symbol id="icon-Notification-Alert" viewBox="0 0 24 24">
<title>Notification-Alert</title>
<path d="M11.236 16.186h2.309v-2.233h-2.309v2.233zM11.236 11.721h2.309v-4.465h-2.309v4.465zM12.39 0c-0.958 0-1.732 0.748-1.732 1.674v1.306c-3.625 0.759-6.349 3.885-6.349 7.624v6.698l-2.309 2.233v1.116h20.78v-1.116l-2.309-2.233v-6.698c0-3.74-2.724-6.865-6.349-7.624v-1.306c0-0.927-0.773-1.674-1.732-1.674v0zM12.39 5.023c3.186 0 5.772 2.5 5.772 5.581v7.814h-11.544v-7.814c0-3.081 2.586-5.581 5.772-5.581v0zM10.093 21.779c0 1.228 1.027 2.221 2.297 2.221s2.297-0.993 2.297-2.221h-4.595z"></path>
</symbol>
<symbol id="icon-Notification" viewBox="0 0 24 24">
<title>Notification</title>
<path d="M12.39 0c-0.958 0-1.732 0.748-1.732 1.674v1.306c-3.625 0.759-6.349 3.885-6.349 7.624v6.698l-2.309 2.233v1.116h20.78v-1.116l-2.309-2.233v-6.698c0-3.74-2.724-6.865-6.349-7.624v-1.306c0-0.927-0.773-1.674-1.732-1.674v0zM12.39 5.023c3.186 0 5.772 2.5 5.772 5.581v7.814h-11.544v-7.814c0-3.081 2.586-5.581 5.772-5.581v0zM10.093 21.779c0 1.228 1.027 2.221 2.297 2.221s2.297-0.993 2.297-2.221h-4.595z"></path>
</symbol>
<symbol id="icon-More-Option" viewBox="0 0 24 24">
<title>More-Option</title>
<path d="M12 20c1.105 0 2 0.895 2 2s-0.895 2-2 2c-1.105 0-2-0.895-2-2s0.895-2 2-2zM12 10c1.105 0 2 0.895 2 2s-0.895 2-2 2c-1.105 0-2-0.895-2-2s0.895-2 2-2zM12 0c1.105 0 2 0.895 2 2s-0.895 2-2 2c-1.105 0-2-0.895-2-2s0.895-2 2-2z"></path>
</symbol>
<symbol id="icon-Warning" viewBox="0 0 24 24">
<title>Warning</title>
<path d="M12 24c6.627 0 12-5.373 12-12s-5.373-12-12-12c-6.627 0-12 5.373-12 12s5.373 12 12 12zM12 1.846c5.608 0 10.154 4.546 10.154 10.154s-4.546 10.154-10.154 10.154c-5.608 0-10.154-4.546-10.154-10.154s4.546-10.154 10.154-10.154zM12.75 4.526h-1.673v11.292h1.673v-11.292zM12.75 17.403v1.893h-1.673v-1.893h1.673z"></path>
</symbol>
<symbol id="icon-Information" viewBox="0 0 24 24">
<title>Information</title>
<path d="M12 24c6.627 0 12-5.373 12-12s-5.373-12-12-12c-6.627 0-12 5.373-12 12s5.373 12 12 12zM12 1.846c5.608 0 10.154 4.546 10.154 10.154s-4.546 10.154-10.154 10.154c-5.608 0-10.154-4.546-10.154-10.154s4.546-10.154 10.154-10.154zM12.75 8.093h-1.673v11.292h1.673v-11.292zM11.077 6.508v-1.893h1.673v1.893h-1.673z"></path>
</symbol>
<symbol id="icon-List" viewBox="0 0 24 24">
<title>List</title>
<path d="M10.447 13l1.125 1.157-6.381 6.564-3.19-3.282 1.125-1.157 2.066 2.125 5.256-5.407zM22 15.286v2h-10v-2h10zM10.447 3l1.125 1.157-6.381 6.564-3.19-3.282 1.125-1.157 2.066 2.125 5.256-5.407zM22 5.857v2h-10v-2h10z"></path>
</symbol>
<symbol id="icon-Save" viewBox="0 0 24 24">
<title>Save</title>
<path d="M22.057 10.8c0.521 0 0.943 0.422 0.943 0.943v0 9.861c0 0.521-0.422 0.943-0.943 0.943v0h-20.114c-0.521 0-0.943-0.422-0.943-0.943v0-9.861c0-0.521 0.422-0.943 0.943-0.943s0.943 0.422 0.943 0.943v0 8.918h18.229v-8.918c0-0.521 0.422-0.943 0.943-0.943zM12 2c0.552 0 1 0.35 1 0.783v0 4.217h4.217c0.399 0 0.728 0.381 0.777 0.875l0.006 0.125c0 0.552-0.35 1-0.783 1v0h-4.217v4.217c0 0.399-0.381 0.728-0.875 0.777l-0.125 0.006c-0.552 0-1-0.35-1-0.783v0-4.218l-4.217 0.001c-0.399 0-0.728-0.381-0.777-0.875l-0.006-0.125c0-0.552 0.35-1 0.783-1v0l4.217-0.001v-4.216c0-0.399 0.381-0.728 0.875-0.777z"></path>
</symbol>
<symbol id="icon-Download" viewBox="0 0 24 24">
<title>Download</title>
<path d="M22.057 10.8c0.521 0 0.943 0.422 0.943 0.943v0 9.861c0 0.521-0.422 0.943-0.943 0.943v0h-20.114c-0.521 0-0.943-0.422-0.943-0.943v0-9.861c0-0.521 0.422-0.943 0.943-0.943s0.943 0.422 0.943 0.943v0 8.918h18.229v-8.918c0-0.521 0.422-0.943 0.943-0.943zM12 2c0.521 0 0.943 0.422 0.943 0.943v0l-0.001 11.866 4.755-3.802c0.375-0.3 0.91-0.267 1.246 0.059l0.080 0.088c0.325 0.407 0.259 1-0.147 1.325v0l-6.286 5.029c-0.344 0.275-0.834 0.275-1.178 0v0l-6.286-5.029c-0.407-0.325-0.473-0.919-0.147-1.325s0.919-0.473 1.325-0.147v0l4.754 3.802 0-11.866c0-0.484 0.364-0.882 0.833-0.937z"></path>
</symbol>
<symbol id="icon-Bin" viewBox="0 0 24 24">
<title>Bin</title>
<path d="M9.273 9.636v8.182c0 0.256-0.199 0.455-0.455 0.455h-0.909c-0.256 0-0.455-0.199-0.455-0.455v-8.182c0-0.256 0.199-0.455 0.455-0.455h0.909c0.256 0 0.455 0.199 0.455 0.455zM12.909 9.636v8.182c0 0.256-0.199 0.455-0.455 0.455h-0.909c-0.256 0-0.455-0.199-0.455-0.455v-8.182c0-0.256 0.199-0.455 0.455-0.455h0.909c0.256 0 0.455 0.199 0.455 0.455zM16.545 9.636v8.182c0 0.256-0.199 0.455-0.455 0.455h-0.909c-0.256 0-0.455-0.199-0.455-0.455v-8.182c0-0.256 0.199-0.455 0.455-0.455h0.909c0.256 0 0.455 0.199 0.455 0.455zM18.364 19.92v-13.466h-12.727v13.466c0 0.682 0.384 1.080 0.455 1.080h11.818c0.071 0 0.455-0.398 0.455-1.080zM8.818 4.636h6.364l-0.682-1.662c-0.043-0.057-0.17-0.142-0.241-0.156h-4.503c-0.085 0.014-0.199 0.099-0.241 0.156l-0.696 1.662zM22 5.091v0.909c0 0.256-0.199 0.455-0.455 0.455h-1.364v13.466c0 1.563-1.023 2.898-2.273 2.898h-11.818c-1.25 0-2.273-1.278-2.273-2.841v-13.523h-1.364c-0.256 0-0.455-0.199-0.455-0.455v-0.909c0-0.256 0.199-0.455 0.455-0.455h4.389l0.994-2.372c0.284-0.696 1.136-1.264 1.889-1.264h4.545c0.753 0 1.605 0.568 1.889 1.264l0.994 2.372h4.389c0.256 0 0.455 0.199 0.455 0.455z"></path>
</symbol>
<symbol id="icon-Print" viewBox="0 0 24 24">
<title>Print</title>
<path d="M9.054 19.661v-1.768h5.893v1.768h-5.893zM9.054 15.536v-1.768h5.893v1.768h-5.893zM21.232 5.518c0.491 0 0.908 0.172 1.252 0.516s0.516 0.761 0.516 1.252v7.464c0 0.491-0.172 0.908-0.516 1.252s-0.761 0.516-1.252 0.516h-2.946v4.714c0 0.491-0.172 0.908-0.516 1.252s-0.761 0.516-1.252 0.516h-9.036c-0.491 0-0.908-0.172-1.252-0.516s-0.516-0.761-0.516-1.252v-4.714h-2.946c-0.491 0-0.908-0.172-1.252-0.516s-0.516-0.761-0.516-1.252v-7.464c0-0.491 0.172-0.908 0.516-1.252s0.761-0.516 1.252-0.516h2.946v-2.75c0-0.491 0.172-0.908 0.516-1.252s0.761-0.516 1.252-0.516h9.036c0.491 0 0.908 0.172 1.252 0.516s0.516 0.761 0.516 1.252v2.75h2.946zM7.482 2.792v2.701c0 0.016 0.008 0.025 0.025 0.025h8.987c0.016 0 0.025-0.008 0.025-0.025v-2.701c0-0.016-0.008-0.025-0.025-0.025h-8.987c-0.016 0-0.025 0.008-0.025 0.025zM16.518 21.232v-9.036h-9.036v9.036h9.036zM21.232 14.75v-7.464h-18.464v7.464h2.946v-2.554c0-0.491 0.172-0.908 0.516-1.252s0.761-0.516 1.252-0.516h9.036c0.491 0 0.908 0.172 1.252 0.516s0.516 0.761 0.516 1.252v2.554h2.946zM18.924 8.342c0.18-0.18 0.393-0.27 0.638-0.27s0.454 0.086 0.626 0.258c0.172 0.172 0.258 0.381 0.258 0.626s-0.086 0.454-0.258 0.626c-0.172 0.172-0.381 0.258-0.626 0.258s-0.454-0.086-0.626-0.258c-0.172-0.172-0.258-0.381-0.258-0.626s0.082-0.45 0.246-0.614z"></path>
</symbol>
<symbol id="icon-Exit" viewBox="0 0 24 24">
<title>Exit</title>
<path d="M16.554 1c0.505 0 0.915 0.41 0.915 0.915v0 5.489c0 0.505-0.41 0.915-0.915 0.915s-0.915-0.41-0.915-0.915v0-4.574h-7.49l3.178 0.953c0.387 0.116 0.652 0.472 0.652 0.876v0 14.638h3.66v-4.574c0-0.505 0.41-0.915 0.915-0.915s0.915 0.41 0.915 0.915v0 5.489c0 0.505-0.41 0.915-0.915 0.915v0h-4.574v0.915c0 0.577-0.528 1.010-1.094 0.897v0l-9.149-1.83c-0.428-0.086-0.735-0.461-0.735-0.897v0-18.314l0.003-0.051c0.002-0.021 0.004-0.042 0.007-0.062 0-0.003 0.001-0.006 0.001-0.009 0.003-0.022 0.008-0.045 0.012-0.066 0.001-0.002 0.001-0.005 0.001-0.007 0.005-0.021 0.011-0.042 0.017-0.063 0.099-0.33 0.373-0.606 0.793-0.637 0.027-0.002 0.053-0.004 0.080-0.004zM2.831 3.145v16.318l7.319 1.464v-15.586l-7.319-2.196zM18.652 7.673c0.357-0.357 0.937-0.357 1.294 0v0l2.776 2.778 0.029 0.034c0.009 0.011 0.016 0.022 0.024 0.033 0.010 0.013 0.020 0.026 0.029 0.039s0.016 0.027 0.024 0.040c0.007 0.012 0.015 0.024 0.022 0.037v0l0.020 0.042c0.006 0.013 0.013 0.026 0.018 0.040s0.010 0.027 0.015 0.041c0.005 0.014 0.011 0.029 0.015 0.043 0.004 0.014 0.007 0.028 0.011 0.042 0.004 0.015 0.008 0.030 0.011 0.045s0.005 0.032 0.007 0.048v0l0.006 0.040c0.006 0.060 0.006 0.121 0 0.181v0l-0.006 0.040c-0.002 0.016-0.004 0.032-0.007 0.048s-0.007 0.030-0.011 0.045c-0.003 0.014-0.007 0.028-0.011 0.042-0.005 0.015-0.010 0.029-0.015 0.044s-0.009 0.027-0.015 0.041c-0.006 0.013-0.012 0.026-0.018 0.040v0l-0.020 0.042c-0.007 0.013-0.014 0.025-0.022 0.037-0.008 0.013-0.016 0.027-0.024 0.040s-0.019 0.026-0.029 0.039c-0.008 0.011-0.016 0.022-0.024 0.033-0.019 0.023-0.039 0.045-0.060 0.067v0l-2.745 2.745c-0.357 0.357-0.937 0.357-1.294 0s-0.357-0.937 0-1.294v0l1.183-1.183h-5.11c-0.505 0-0.915-0.41-0.915-0.915s0.41-0.915 0.915-0.915v0h5.11l-1.183-1.183c-0.357-0.357-0.357-0.937 0-1.294z"></path>
</symbol>
<symbol id="icon-Paper-02" viewBox="0 0 24 24">
<title>Paper-02</title>
<path d="M15.783 1.88c0.224 0 0.408 0.189 0.408 0.422v0 0.737h2.315c0.758 0 1.407 0.534 1.576 1.3v0l1.919 8.605v8.304c0 0.913-0.717 1.657-1.599 1.657v0h-16.802c-0.882 0-1.599-0.744-1.599-1.657v0-8.304l1.917-8.601c0.171-0.769 0.818-1.303 1.577-1.303v0h2.315v-0.737c0-0.233 0.182-0.422 0.407-0.422v0zM20.606 14.387h-17.212v6.86c0 0.117 0.091 0.213 0.205 0.213v0h16.802c0.113 0 0.205-0.096 0.205-0.213v0-6.86zM12 15.114c1.494 0 2.711 1.26 2.711 2.809s-1.217 2.809-2.711 2.809c-1.496 0-2.712-1.259-2.712-2.809s1.216-2.809 2.712-2.809zM12 16.558c-0.727 0-1.318 0.612-1.318 1.365s0.591 1.365 1.318 1.365c0.726 0 1.317-0.612 1.317-1.365s-0.591-1.365-1.317-1.365zM6.716 4.483h-1.222c-0.105 0-0.195 0.074-0.218 0.18v0l-1.797 8.281h1.928v-2.732c0-0.112 0.043-0.219 0.118-0.298v0l1.111-1.15v-4.042c0-0.090 0.033-0.169 0.080-0.238v0zM17.778 7.561h-8.592l0.003 2.652c0 0.112-0.042 0.219-0.119 0.298s-0.181 0.124-0.288 0.124v0h-0.001l-2.559-0.003v2.31h11.557v-5.382zM18.505 4.483h-1.223c0.047 0.069 0.080 0.148 0.080 0.238v0 1.997h0.822c0.224 0 0.408 0.188 0.408 0.422v0 5.804h1.927l-1.797-8.284c-0.023-0.102-0.113-0.176-0.218-0.176v0zM15.97 11.435c0.225 0 0.408 0.188 0.408 0.422 0 0.232-0.183 0.422-0.408 0.422v0h-0.143c-0.225 0-0.407-0.189-0.407-0.422 0-0.234 0.182-0.422 0.407-0.422v0zM14.444 11.436c0.224 0 0.407 0.188 0.407 0.422s-0.183 0.422-0.407 0.422v0h-6.415c-0.225 0-0.408-0.188-0.408-0.422s0.183-0.422 0.408-0.422v0zM8.371 8.157l-1.575 1.632 1.577 0.002-0.002-1.634zM16.549 5.143h-9.098v2.776l1.040-1.077c0.077-0.079 0.18-0.123 0.288-0.123v0h7.771v-1.575zM15.376 2.724h-6.753v1.575h6.753v-1.575z"></path>
</symbol>
<symbol id="icon-Paper-01" viewBox="0 0 24 24">
<title>Paper-01</title>
<path d="M18.708 2c0.973 0 1.764 0.791 1.764 1.764v0 1.315h0.588c0.973 0 1.764 0.792 1.764 1.765v0 13.565c0 0.973-0.791 1.764-1.764 1.764v0h-10.127c-0.973 0-1.764-0.791-1.764-1.764v0-1.316h-0.587c-0.972 0-1.764-0.791-1.764-1.764v0l-0-4.657-3.652-3.653-0.004 0.004-0.821-0.822c-0.453-0.453-0.453-1.19 0-1.643s1.19-0.453 1.643 0v0l0.314 0.314 0.003-0.004 6.982 6.986 0.996 1.969c0.144 0.288-0.138 0.604-0.441 0.492v0l-2.199-0.816-0.123-0.13-1.309-1.308 0 2.9c0 0.326 0.24 0.597 0.554 0.644l0.096 0.007h9.577c0.358 0 0.65-0.292 0.65-0.651v0-12.829c0-0.359-0.292-0.651-0.65-0.651v0h-9.577c-0.359 0-0.65 0.292-0.65 0.651v0 6.642l-1.389-1.389v-5.621c0-0.973 0.792-1.764 1.764-1.764v0zM20.822 6.507h-0.35v10.822c0 0.973-0.791 1.764-1.764 1.764v0h-8.192v0.997c0 0.362 0.294 0.656 0.655 0.656v0h9.651c0.361 0 0.656-0.294 0.656-0.656v0-12.927c0-0.362-0.295-0.656-0.656-0.656v0zM10.853 14.312l-0.733 0.732 1.258 0.467c0.035 0.013 0.069-0.024 0.051-0.058v0l-0.576-1.141zM4.301 7.883l-0.629 0.628 5.969 5.97 0.63-0.629-5.97-5.969zM16.805 13.627c0.17 0 0.309 0.155 0.309 0.347 0 0.147-0.081 0.271-0.194 0.322l-0.059 0.019-0.056 0.006h-2.158c-0.17 0-0.309-0.155-0.309-0.347 0-0.146 0.081-0.271 0.194-0.322l0.059-0.019 0.056-0.006h2.158zM12.635 12.239c0.175 0 0.316 0.156 0.316 0.347 0 0.146-0.082 0.271-0.199 0.322l-0.061 0.019-0.056 0.006h-0.928c-0.175 0-0.316-0.155-0.316-0.347 0-0.146 0.082-0.271 0.197-0.322l0.061-0.019 0.058-0.006h0.928zM16.805 12.239c0.17 0 0.309 0.156 0.309 0.347 0 0.146-0.081 0.271-0.194 0.322l-0.059 0.019-0.056 0.006h-2.158c-0.17 0-0.309-0.155-0.309-0.347 0-0.146 0.081-0.271 0.194-0.322l0.059-0.019 0.056-0.006h2.158zM16.638 10.679c0.167 0 0.302 0.155 0.302 0.347 0 0.146-0.079 0.271-0.19 0.322l-0.058 0.019-0.054 0.006h-6.159c-0.167 0-0.302-0.155-0.302-0.347 0-0.146 0.079-0.271 0.189-0.322l0.058-0.019 0.055-0.006h6.159zM16.766 9.118c0.092 0 0.181 0.037 0.245 0.102 0.065 0.064 0.103 0.154 0.103 0.245s-0.038 0.181-0.103 0.245c-0.064 0.065-0.153 0.102-0.245 0.102s-0.181-0.037-0.245-0.102c-0.065-0.064-0.102-0.154-0.102-0.245s0.037-0.181 0.102-0.245c0.064-0.065 0.154-0.102 0.245-0.102zM15.424 9.119c0.167 0 0.302 0.155 0.302 0.346 0 0.147-0.078 0.271-0.189 0.323l-0.058 0.019-0.055 0.005h-4.946c-0.166 0-0.301-0.155-0.301-0.347 0-0.146 0.079-0.271 0.189-0.322l0.058-0.019 0.054-0.005h4.946zM12.643 7.731c0.171 0 0.309 0.155 0.309 0.346 0 0.146-0.081 0.271-0.194 0.323l-0.059 0.019-0.056 0.005h-2.158c-0.17 0-0.308-0.155-0.308-0.347 0-0.146 0.080-0.271 0.194-0.322l0.059-0.019 0.055-0.005h2.158zM16.805 7.731c0.17 0 0.309 0.155 0.309 0.347 0 0.146-0.081 0.27-0.194 0.322l-0.059 0.019-0.056 0.005h-2.158c-0.17 0-0.309-0.155-0.309-0.346 0-0.147 0.081-0.271 0.194-0.323l0.059-0.019 0.056-0.005h2.158zM3.161 6.935c-0.114 0-0.227 0.044-0.314 0.13-0.173 0.173-0.173 0.456 0 0.629v0l0.314 0.314 0.628-0.629-0.313-0.314c-0.087-0.086-0.2-0.13-0.315-0.13zM16.638 6.17c0.167 0 0.302 0.155 0.302 0.347 0 0.146-0.079 0.271-0.19 0.322l-0.058 0.019-0.054 0.006h-6.159c-0.167 0-0.302-0.155-0.302-0.347 0-0.146 0.079-0.271 0.189-0.322l0.058-0.019 0.055-0.006h6.159z"></path>
</symbol>
<symbol id="icon-Book" viewBox="0 0 24 24">
<title>Book</title>
<path d="M22.19 5.398l-1.537-0v-1.591c0-0.364-0.267-0.674-0.627-0.728-0.063-0.009-1.56-0.227-3.363 0.101-2.010 0.366-3.613 1.268-4.7 2.631-1.087-1.363-2.69-2.265-4.7-2.631-1.803-0.328-3.3-0.111-3.363-0.101-0.36 0.054-0.627 0.363-0.627 0.728v1.591h-1.537c-0.406 0-0.736 0.329-0.736 0.736v13.865c0 0.238 0.115 0.462 0.31 0.6s0.443 0.173 0.668 0.095c0.055-0.019 5.569-1.901 9.68-0.025 0.194 0.089 0.417 0.089 0.611 0 4.1-1.87 9.625 0.006 9.68 0.025 0.079 0.027 0.16 0.041 0.242 0.041 0.151 0 0.3-0.046 0.426-0.136 0.194-0.138 0.31-0.362 0.31-0.6v-13.865c0-0.406-0.329-0.736-0.736-0.736zM2.472 19.014v-12.145h0.801v9.799c0 0.214 0.094 0.417 0.255 0.557s0.377 0.202 0.588 0.171c0.041-0.006 3.237-0.445 5.572 1.158-2.877-0.492-5.756 0.077-7.217 0.461zM11.227 17.89c-1.029-0.929-2.368-1.558-3.965-1.848-0.768-0.14-1.481-0.181-2.051-0.181-0.169 0-0.326 0.004-0.468 0.009v-11.388h-0c1.414-0.064 4.854 0.087 6.483 2.849v10.559zM12.699 7.331c1.623-2.749 5.069-2.908 6.483-2.847v11.386c-0.619-0.025-1.522-0.010-2.518 0.171-1.596 0.29-2.936 0.919-3.965 1.848v-10.558zM14.235 18.554c2.336-1.603 5.534-1.164 5.573-1.158 0.212 0.032 0.427-0.030 0.589-0.17s0.256-0.343 0.256-0.558v-9.798h0.801v12.145c-1.462-0.384-4.342-0.953-7.219-0.46z"></path>
</symbol>
<symbol id="icon-Chart" viewBox="0 0 24 24">
<title>Chart</title>
<path d="M21.023 7.445c0.356 0 0.645 0.289 0.645 0.645v0 13.621h0.687c0.356 0 0.645 0.289 0.645 0.645s-0.289 0.645-0.645 0.645v0h-20.711c-0.356 0-0.645-0.289-0.645-0.645s0.289-0.645 0.645-0.645v0h0.687v-7.176c0-0.356 0.289-0.645 0.645-0.645v0h2.578c0.356 0 0.645 0.289 0.645 0.645v0 7.176h1.289v-4.598c0-0.356 0.289-0.645 0.645-0.645v0h2.578c0.356 0 0.645 0.289 0.645 0.645v0 4.598h1.289v-9.754c0-0.356 0.289-0.645 0.645-0.645v0h2.578c0.356 0 0.645 0.289 0.645 0.645v0 9.754h1.289v-13.621c0-0.356 0.289-0.645 0.645-0.645v0zM20.379 8.734h-1.289v12.977h1.289v-12.977zM15.223 12.602h-1.289v9.109h1.289v-9.109zM10.066 17.758h-1.289v3.953h1.289v-3.953zM4.91 15.18h-1.289v6.531h1.289v-6.531zM19.734 1c1.066 0 1.934 0.867 1.934 1.934s-0.867 1.934-1.934 1.934c-0.396 0-0.764-0.12-1.071-0.325v0l-2.24 1.68c0.057 0.183 0.088 0.377 0.088 0.578 0 1.066-0.867 1.934-1.934 1.934-0.298 0-0.581-0.068-0.833-0.189v0l-2.578 2.578c0.121 0.252 0.189 0.535 0.189 0.833 0 1.066-0.867 1.934-1.934 1.934s-1.934-0.867-1.934-1.934c0-0.081 0.006-0.16 0.015-0.239v0l-1.897-0.948c-0.348 0.336-0.821 0.542-1.341 0.542-1.066 0-1.934-0.867-1.934-1.934s0.867-1.934 1.934-1.934c1.066 0 1.934 0.867 1.934 1.934 0 0.081-0.006 0.16-0.015 0.239v0l1.897 0.948c0.348-0.336 0.821-0.542 1.341-0.542 0.298 0 0.581 0.068 0.833 0.189v0l2.578-2.578c-0.121-0.252-0.189-0.535-0.189-0.833 0-1.066 0.867-1.934 1.934-1.934 0.396 0 0.764 0.12 1.071 0.325v0l2.24-1.68c-0.057-0.183-0.088-0.377-0.088-0.578 0-1.066 0.867-1.934 1.934-1.934zM9.422 11.313c-0.355 0-0.645 0.289-0.645 0.645s0.289 0.645 0.645 0.645c0.355 0 0.645-0.289 0.645-0.645s-0.289-0.645-0.645-0.645zM4.266 8.734c-0.355 0-0.645 0.289-0.645 0.645s0.289 0.645 0.645 0.645c0.355 0 0.645-0.289 0.645-0.645s-0.289-0.645-0.645-0.645zM14.578 6.156c-0.355 0-0.645 0.289-0.645 0.645s0.289 0.645 0.645 0.645c0.355 0 0.645-0.289 0.645-0.645s-0.289-0.645-0.645-0.645zM19.734 2.289c-0.355 0-0.645 0.289-0.645 0.645s0.289 0.645 0.645 0.645c0.355 0 0.645-0.289 0.645-0.645s-0.289-0.645-0.645-0.645z"></path>
</symbol>
<symbol id="icon-Mobile" viewBox="0 0 24 24">
<title>Mobile</title>
<path d="M10 21v-1h4v1h-4zM7 18v-14h10v14h-10zM16 1h-8c-1.66 0-3 1.34-3 3v16c0 1.66 1.34 3 3 3h8c1.66 0 3-1.34 3-3v-16c0-1.66-1.34-3-3-3v0z"></path>
</symbol>
<symbol id="icon-Refresh" viewBox="0 0 24 24">
<title>Refresh</title>
<path d="M17.641 6.35c-1.45-1.45-3.44-2.35-5.65-2.35-4.42 0-7.991 3.58-7.991 8s3.571 8 7.991 8c3.73 0 6.839-2.55 7.73-6h-2.080c-0.82 2.33-3.040 4-5.65 4-3.31 0-6-2.691-6-6 0-3.31 2.69-6 6-6 1.66 0 3.139 0.69 4.219 1.78l-3.219 3.22h7v-7l-2.35 2.35z"></path>
</symbol>
<symbol id="icon-Photo" viewBox="0 0 24 24">
<title>Photo</title>
<path d="M12 16c-1.65 0-3-1.35-3-3s1.35-3 3-3c1.65 0 3 1.35 3 3s-1.35 3-3 3v0zM12 8c-2.76 0-5 2.24-5 5s2.24 5 5 5c2.76 0 5-2.24 5-5s-2.24-5-5-5v0zM20 19h-16v-12h4.050l1.83-2h4.24l1.83 2h4.050v12zM20 5h-3.17l-1.83-2h-6l-1.83 2h-3.17c-1.1 0-2 0.9-2 2v12c0 1.1 0.9 2 2 2h16c1.1 0 2-0.9 2-2v-12c0-1.1-0.9-2-2-2v0z"></path>
</symbol>
<symbol id="icon-Date" viewBox="0 0 24 24">
<title>Date</title>
<path d="M11 13h2v-2h-2v2zM15 13h2v-2h-2v2zM5 20h14v-10h-14v10zM5 8h14v-2h-14v2zM21 6v14c0 1.1-0.9 2-2 2h-14c-1.11 0-2-0.9-2-2l0.010-14c0-1.1 0.88-2 1.99-2h1v-2h2v2h8v-2h2v2h1c1.1 0 2 0.9 2 2v0zM7 13h2v-2h-2v2z"></path>
</symbol>
<symbol id="icon-Work" viewBox="0 0 24 24">
<title>Work</title>
<path d="M23 3v18h-6v-2h4v-14h-9v0.84l-2-1.33v-1.51h13zM8.17 5.7l6.83 4.55v10.75h-14v-10.52l7.17-4.78zM8.17 8.090l-5.17 3.29v7.62h3v-6h4v6h3v-7.84l-4.83-3.070zM19 15v2h-2v-2h2zM19 11v2h-2v-2h2zM19 7v2h-2v-2h2zM15 7v0.84l-1.26-0.84h1.26z"></path>
</symbol>
<symbol id="icon-Sorting-Down" viewBox="0 0 24 24">
<title>Sorting-Down</title>
<path d="M17.13 14.53l-5.060 5.061-5.060-5.061-1.54 1.54 6.6 6.6 6.6-6.6z"></path>
</symbol>
<symbol id="icon-Sorting-Up" viewBox="0 0 24 24">
<title>Sorting-Up</title>
<path d="M17.13 8.67l-5.060-5.061-5.060 5.061-1.54-1.54 6.6-6.6 6.6 6.6z"></path>
</symbol>
<symbol id="icon-Sorting" viewBox="0 0 24 24">
<title>Sorting</title>
<path d="M14.86 16.66l5.061-5.060-5.061-5.060 1.54-1.54 6.6 6.6-6.6 6.6-1.54-1.54zM9.14 16.66l-5.060-5.060 5.060-5.060-1.54-1.54-6.6 6.6 6.6 6.6 1.54-1.54z"></path>
</symbol>
<symbol id="icon-License" viewBox="0 0 24 24">
<title>License</title>
<path d="M20 7c1.11 0 2 0.89 2 2v11c0 1.11-0.89 2-2 2h-16c-1.11 0-2-0.89-2-2l0.010-11c0-1.11 0.88-2 1.99-2h4v-2c0-1.11 0.89-2 2-2h4c1.11 0 2 0.89 2 2v2h4zM4 20h16v-11h-16v11zM10 7h4v-2h-4v2z"></path>
</symbol>
<symbol id="icon-Search" viewBox="0 0 24 24">
<title>Search</title>
<path d="M9.433 14.579c-2.847 0-5.146-2.298-5.146-5.146s2.298-5.146 5.146-5.146c2.847 0 5.146 2.298 5.146 5.146s-2.298 5.146-5.146 5.146v0zM16.294 14.579h-0.903l-0.32-0.309c1.121-1.304 1.795-2.996 1.795-4.837 0-4.105-3.328-7.433-7.433-7.433s-7.433 3.328-7.433 7.433c0 4.105 3.328 7.433 7.433 7.433 1.841 0 3.533-0.675 4.837-1.795l0.309 0.32v0.903l5.718 5.706 1.704-1.704-5.706-5.718z"></path>
</symbol>
<symbol id="icon-hide" viewBox="0 0 24 24">
<title>hide</title>
<path d="M12 6.55c3.79 0 7.17 2.13 8.82 5.5-0.59 1.22-1.42 2.27-2.41 3.12l1.41 1.41c1.39-1.23 2.49-2.77 3.18-4.53-1.73-4.39-6-7.5-11-7.5-1.27 0-2.49 0.2-3.64 0.57l1.65 1.65c0.65-0.13 1.31-0.22 1.99-0.22zM14.28 11.040l2.070 2.070c0.080-0.34 0.14-0.7 0.14-1.070 0.010-2.48-2.010-4.49-4.49-4.49-0.37 0-0.72 0.060-1.070 0.14l2.070 2.070c0.58 0.25 1.030 0.71 1.28 1.28zM2.010 4.42l2.68 2.68c-1.63 1.28-2.92 2.98-3.69 4.95 1.73 4.39 6 7.5 11 7.5 1.52 0 2.98-0.29 4.32-0.82l3.42 3.42 1.41-1.41-17.73-17.74-1.41 1.42zM9.51 11.92l2.61 2.61c-0.040 0.010-0.080 0.020-0.12 0.020-1.38 0-2.5-1.12-2.5-2.5 0-0.050 0.010-0.080 0.010-0.13v0zM6.11 8.52l1.75 1.75c-0.23 0.55-0.36 1.15-0.36 1.78 0 2.48 2.020 4.5 4.5 4.5 0.63 0 1.23-0.13 1.77-0.36l0.98 0.98c-0.88 0.24-1.8 0.38-2.75 0.38-3.79 0-7.17-2.13-8.82-5.5 0.7-1.43 1.72-2.61 2.93-3.53z"></path>
</symbol>
<symbol id="icon-View" viewBox="0 0 24 24">
<title>View</title>
<path d="M12 5c-5 0-9.27 3.11-11 7.5 1.73 4.39 6 7.5 11 7.5s9.27-3.11 11-7.5c-1.73-4.39-6-7.5-11-7.5zM12 18c-3.79 0-7.17-2.13-8.82-5.5 1.65-3.37 5.030-5.5 8.82-5.5s7.17 2.13 8.82 5.5c-1.65 3.37-5.030 5.5-8.82 5.5zM12 8c-2.48 0-4.5 2.020-4.5 4.5s2.020 4.5 4.5 4.5c2.48 0 4.5-2.020 4.5-4.5s-2.020-4.5-4.5-4.5zM12 15c-1.38 0-2.5-1.12-2.5-2.5s1.12-2.5 2.5-2.5c1.38 0 2.5 1.12 2.5 2.5s-1.12 2.5-2.5 2.5z"></path>
</symbol>
<symbol id="icon-Error" viewBox="0 0 24 24">
<title>Error</title>
<path d="M12 2c-5.52 0-10 4.48-10 10s4.48 10 10 10c5.52 0 10-4.48 10-10s-4.48-10-10-10zM13 17h-2v-2h2v2zM13 13h-2v-6h2v6z"></path>
</symbol>
<symbol id="icon-Warning1" viewBox="0 0 24 24">
<title>Warning1</title>
<path d="M12 2c-5.52 0-10 4.48-10 10s4.48 10 10 10c5.52 0 10-4.48 10-10s-4.48-10-10-10zM13 17h-2v-2h2v2zM13 13h-2v-6h2v6z"></path>
</symbol>
<symbol id="icon-Success" viewBox="0 0 24 24">
<title>Success</title>
<path d="M12 2c-5.52 0-10 4.48-10 10s4.48 10 10 10c5.52 0 10-4.48 10-10s-4.48-10-10-10zM10 17l-5-5 1.41-1.41 3.59 3.58 7.59-7.59 1.41 1.42-9 9z"></path>
</symbol>
<symbol id="icon-rotate-r" viewBox="0 0 24 24">
<title>rotate-r</title>
<path d="M15.55 5.55l-4.55-4.55v3.070c-3.94 0.49-7 3.85-7 7.93s3.050 7.44 7 7.93v-2.020c-2.84-0.48-5-2.94-5-5.91s2.16-5.43 5-5.91v3.91l4.55-4.45zM19.93 11c-0.17-1.39-0.72-2.73-1.62-3.89l-1.42 1.42c0.54 0.75 0.88 1.6 1.020 2.47h2.020zM13 17.9v2.020c1.39-0.17 2.74-0.71 3.9-1.61l-1.44-1.44c-0.75 0.54-1.59 0.89-2.46 1.030zM16.89 15.48l1.42 1.41c0.9-1.16 1.45-2.5 1.62-3.89h-2.020c-0.14 0.87-0.48 1.72-1.020 2.48v0z"></path>
</symbol>
<symbol id="icon-switch" viewBox="0 0 32 32">
<title>switch</title>
<path fill="#fff" class="fill-color1-fff" d="M20 11.2h0.492v-0.492h-0.492z"></path>
<path fill="#fff" class="fill-color1-fff" d="M18.892 11.2h0.492v-0.492h-0.492z"></path>
<path fill="#fff" class="fill-color1-fff" d="M17.908 11.2h0.492v-0.492h-0.492z"></path>
<path fill="#fff" class="fill-color1-fff" d="M11.508 11.2h0.492v-0.492h-0.492z"></path>
<path fill="#fff" class="fill-color1-fff" d="M16.537 22.779h-1.075c-0.148 0-0.269 0.12-0.269 0.269s0.12 0.269 0.269 0.269h1.075c0.148 0 0.269-0.12 0.269-0.269s-0.12-0.269-0.269-0.269z"></path>
<path fill="#fff" class="fill-color1-fff" d="M23.524 19.017c0 0.148-0.12 0.269-0.269 0.269h-3.762c-0.148 0-0.269-0.12-0.269-0.269v-2.15c0.001-0.742 0.602-1.343 1.344-1.344h1.612c0.742 0.001 1.343 0.602 1.344 1.344v2.15zM21.106 21.973h-10.211v-2.15h1.612c0.445 0 0.806-0.361 0.806-0.806v-2.15c-0.001-0.899-0.638-1.672-1.521-1.846 0.412-0.431 0.552-1.054 0.364-1.62s-0.674-0.981-1.261-1.079v-2.174h10.211v2.174c-0.588 0.098-1.073 0.513-1.262 1.079s-0.048 1.189 0.364 1.62c-0.883 0.173-1.52 0.946-1.521 1.846v2.15c0 0.445 0.361 0.806 0.806 0.806h1.612v2.15zM20.299 23.586h-8.599c-0.445 0-0.806-0.361-0.806-0.806v-0.269h10.211v0.269c0 0.445-0.361 0.806-0.806 0.806v0zM8.476 19.017v-2.15c0.001-0.742 0.602-1.343 1.344-1.344h1.612c0.742 0.001 1.343 0.602 1.344 1.344v2.15c0 0.148-0.12 0.269-0.269 0.269h-3.762c-0.148 0-0.269-0.12-0.269-0.269v0zM10.626 12.837c0.594 0 1.075 0.481 1.075 1.075s-0.481 1.075-1.075 1.075c-0.594 0-1.075-0.481-1.075-1.075s0.481-1.075 1.075-1.075v0zM11.7 8.537h8.599c0.445 0 0.806 0.361 0.806 0.806v0.269h-10.211v-0.269c0-0.445 0.361-0.806 0.806-0.806v0zM22.449 13.912c0 0.594-0.481 1.075-1.075 1.075s-1.075-0.481-1.075-1.075c0-0.594 0.481-1.075 1.075-1.075s1.075 0.481 1.075 1.075v0zM22.541 15.022c0.412-0.431 0.552-1.054 0.364-1.62s-0.674-0.981-1.262-1.079v-2.98c-0.001-0.742-0.602-1.343-1.344-1.344h-8.599c-0.742 0.001-1.343 0.602-1.344 1.344v2.98c-0.588 0.098-1.073 0.513-1.261 1.079s-0.048 1.189 0.364 1.62c-0.883 0.173-1.52 0.946-1.521 1.846v2.15c0 0.445 0.361 0.806 0.806 0.806h1.612v2.956c0.001 0.742 0.602 1.343 1.344 1.344h8.599c0.742-0.001 1.343-0.602 1.344-1.344v-2.956h1.612c0.445 0 0.806-0.361 0.806-0.806v-2.15c-0.001-0.899-0.638-1.672-1.521-1.846v0z"></path>
<path fill="#fff" class="fill-color1-fff" d="M16.806 14.875v-0.426c0-0.148-0.12-0.269-0.269-0.269h-2.418v-0.537h2.418c0.148 0 0.269-0.12 0.269-0.269v-0.426l0.964 0.964-0.964 0.964zM16.727 12.11c-0.077-0.077-0.192-0.1-0.293-0.058s-0.166 0.14-0.166 0.248v0.806h-2.418c-0.148 0-0.269 0.12-0.269 0.269v1.075c0 0.148 0.12 0.269 0.269 0.269h2.418v0.806c0 0.109 0.066 0.207 0.166 0.248s0.216 0.018 0.293-0.058l1.612-1.612c0.105-0.105 0.105-0.275 0-0.38l-1.612-1.612z"></path>
<path fill="#fff" class="fill-color1-fff" d="M17.881 18.48h-2.418c-0.148 0-0.269 0.12-0.269 0.269v0.426l-0.964-0.964 0.964-0.964v0.426c0 0.148 0.12 0.269 0.269 0.269h2.418v0.537zM18.15 17.405h-2.418v-0.806c0-0.109-0.066-0.207-0.166-0.248s-0.216-0.018-0.293 0.058l-1.612 1.612c-0.105 0.105-0.105 0.275 0 0.38l1.612 1.612c0.077 0.077 0.193 0.1 0.293 0.058s0.166-0.14 0.166-0.248v-0.806h2.418c0.148 0 0.269-0.12 0.269-0.269v-1.075c0-0.148-0.12-0.269-0.269-0.269v0z"></path>
<path fill="none" stroke="#fff" class="stroke-color1-fff" stroke-linejoin="miter" stroke-linecap="butt" stroke-miterlimit="4" stroke-width="0.4923" d="M31.754 16c0 8.701-7.053 15.754-15.754 15.754s-15.754-7.053-15.754-15.754c0-8.701 7.053-15.754 15.754-15.754s15.754 7.053 15.754 15.754z"></path>
</symbol>
<symbol id="icon-box-blank" viewBox="0 0 32 32">
<title>box-blank</title>
<path fill="#4a4a49" d="M25.333 6.667v18.667h-18.667v-18.667h18.667zM25.333 4h-18.667c-1.467 0-2.667 1.2-2.667 2.667v18.667c0 1.467 1.2 2.667 2.667 2.667h18.667c1.467 0 2.667-1.2 2.667-2.667v-18.667c0-1.467-1.2-2.667-2.667-2.667z"></path>
</symbol>
<symbol id="icon-Activity" viewBox="0 0 24 24">
<path d="M12 2c1.349 0 2.659 0.265 3.894 0.788 1.19 0.504 2.259 1.224 3.178 2.143 0.918 0.916 1.639 1.986 2.143 3.178 0.52 1.233 0.786 2.543 0.786 3.892s-0.265 2.659-0.788 3.894c-0.504 1.19-1.224 2.259-2.143 3.178-0.916 0.918-1.986 1.639-3.178 2.143-1.233 0.52-2.543 0.786-3.892 0.786s-2.659-0.265-3.894-0.788c-1.19-0.504-2.259-1.224-3.178-2.143-0.918-0.916-1.639-1.986-2.143-3.178-0.52-1.233-0.786-2.543-0.786-3.892 0-0.245 0.008-0.488 0.027-0.729 0.688 0.125 1.375 0.243 2.065 0.333-0.006 0.131-0.010 0.263-0.010 0.396 0 4.367 3.551 7.918 7.918 7.918 4.365 0 7.918-3.551 7.918-7.918 0-4.365-3.551-7.918-7.918-7.918-2.104 0-4.018 0.825-5.436 2.168l1.585-0.229 0.263 1.802-5.79 0.843 0.463-5.702 1.814 0.147-0.164 2.020 0.195-0.201c0.825-0.827 1.773-1.493 2.824-1.985l0.354-0.158c1.233-0.52 2.543-0.786 3.892-0.786zM12.929 5.516v6.276l3.827 3.994-1.322 1.306-4.527-4.651v-6.924h2.022z"></path>
</symbol>
<symbol id="icon-Change" viewBox="0 0 24 24">
<path d="M12 2c1.349 0 2.659 0.265 3.894 0.788 1.19 0.504 2.259 1.224 3.178 2.143 0.918 0.916 1.639 1.986 2.143 3.178 0.52 1.233 0.786 2.543 0.786 3.892s-0.265 2.659-0.788 3.894c-0.504 1.19-1.224 2.259-2.143 3.178-0.916 0.918-1.986 1.639-3.178 2.143-1.233 0.52-2.543 0.786-3.892 0.786s-2.659-0.265-3.894-0.788c-1.19-0.504-2.259-1.224-3.178-2.143-0.918-0.916-1.639-1.986-2.143-3.178-0.52-1.233-0.786-2.543-0.786-3.892 0-0.245 0.008-0.488 0.027-0.729 0.688 0.125 1.375 0.243 2.065 0.333-0.006 0.131-0.010 0.263-0.010 0.396 0 4.367 3.551 7.918 7.918 7.918 4.365 0 7.918-3.551 7.918-7.918 0-4.365-3.551-7.918-7.918-7.918-2.104 0-4.018 0.825-5.436 2.168l1.585-0.229 0.263 1.802-5.79 0.843 0.463-5.702 1.814 0.147-0.164 2.020 0.195-0.201c0.825-0.827 1.773-1.493 2.824-1.985l0.354-0.158c1.233-0.52 2.543-0.786 3.892-0.786zM13.145 8.772l2.084 2.084-6.145 6.145h-2.084v-2.084l6.145-6.145zM13.145 10.345l-5.034 5.034v0.511h0.511l5.034-5.034-0.512-0.511zM15.146 7c0.144 0 0.283 0.050 0.394 0.161v0l1.3 1.3c0.217 0.217 0.217 0.567 0 0.783v0l-1.017 1.017-2.084-2.084 1.017-1.017c0.106-0.106 0.251-0.161 0.389-0.161z"></path>
</symbol>
<symbol id="icon-Plus" viewBox="0 0 24 24">
<path d="M22 13.429l-8.571-0.001-0 8.572h-2.857l0.001-8.572-8.572 0.001v-2.857l8.572-0-0.001-8.571h2.857l0 8.571 8.571 0v2.857z"></path>
</symbol>
<symbol id="icon-nd-party" viewBox="0 0 24 24">
<path d="M15.901 7.348c0.783 0 1.426 0.646 1.426 1.435s-0.643 1.435-1.426 1.435c-0.784 0-1.426-0.647-1.426-1.435s0.642-1.435 1.426-1.435v0zM14.406 7.826c0 0.946-0.354 1.801-0.919 2.469 0.503 0.813 1.392 1.357 2.414 1.357 1.575 0 2.851-1.285 2.851-2.87s-1.276-2.87-2.851-2.87c-0.657 0-1.255 0.231-1.737 0.607 0.147 0.409 0.241 0.845 0.241 1.306v0zM15.901 12.37c-0.791 0-1.908 0.168-2.946 0.498 0.857 0.17 1.745 0.426 2.546 0.762 0.134-0.009 0.267-0.026 0.399-0.026 1.924 0 4.135 1.096 4.277 1.701v0.85h-2.005c0.013 0.093 0.034 0.183 0.034 0.279v0.957h3.396v-2.152c0-1.908-3.8-2.87-5.703-2.87v0zM10.604 12.609c-2.538 0-7.604 1.282-7.604 3.826v2.87h15.208v-2.87c0-2.544-5.066-3.826-7.604-3.826v0zM10.604 4c-2.101 0-3.802 1.711-3.802 3.826s1.701 3.826 3.802 3.826 3.802-1.712 3.802-3.826c0-2.115-1.701-3.826-3.802-3.826v0zM10.604 14.256c2.566 0 5.513 1.463 5.703 2.267v1.133h-11.406v-1.122c0.19-0.816 3.137-2.278 5.703-2.278v0zM10.604 5.913c1.046 0 1.901 0.86 1.901 1.913s-0.855 1.913-1.901 1.913-1.901-0.861-1.901-1.913c0-1.053 0.855-1.913 1.901-1.913v0z"></path>
</symbol>
<symbol id="icon-xls" viewBox="0 0 24 24">
<path d="M20 8l-6-6h-8c-1.1 0-1.99 0.9-1.99 2l-0.010 16c0 1.1 0.89 2 1.99 2h12.010c1.1 0 2-0.9 2-2v-12zM18 20h-12v-16h7v5h5v11z"></path>
<path d="M8.768 17.742l0.684-1.384 0.689 1.384h0.758l-0.995-1.884 0.937-1.8h-0.758l-0.632 1.284-0.632-1.284h-0.763l0.942 1.8-1 1.884h0.768zM13.495 17.742v-0.589h-1.379v-3.095h-0.689v3.684h2.068zM14.995 17.8c0.963 0 1.374-0.221 1.374-1.137 0-0.853-0.358-0.947-1.016-1.079-0.542-0.105-0.726-0.153-0.726-0.516 0-0.379 0.205-0.468 0.689-0.468 0.284 0 0.595 0.032 0.832 0.074v-0.579c-0.174-0.042-0.474-0.095-0.9-0.095-0.9 0-1.321 0.237-1.321 1.116s0.421 0.963 1.063 1.084c0.474 0.089 0.679 0.132 0.679 0.532 0 0.363-0.174 0.468-0.737 0.468-0.358 0-0.732-0.042-0.937-0.084v0.616c0.211 0.037 0.637 0.068 1 0.068z"></path>
</symbol>
<symbol id="icon-csv" viewBox="0 0 24 24">
<path d="M20 8l-6-6h-8c-1.1 0-1.99 0.9-1.99 2l-0.010 16c0 1.1 0.89 2 1.99 2h12.010c1.1 0 2-0.9 2-2v-12zM18 20h-12v-16h7v5h5v11z"></path>
<path d="M9.426 17.8c0.295 0 0.579-0.032 0.832-0.084v-0.574c-0.226 0.042-0.458 0.058-0.663 0.058-0.716 0-0.905-0.195-0.905-0.916v-0.763c0-0.726 0.189-0.921 0.905-0.921 0.205 0 0.437 0.016 0.663 0.058v-0.574c-0.253-0.053-0.537-0.084-0.832-0.084-1.053 0-1.426 0.4-1.426 1.463v0.879c0 1.058 0.374 1.458 1.426 1.458zM11.763 17.8c0.963 0 1.374-0.221 1.374-1.137 0-0.853-0.358-0.947-1.016-1.079-0.542-0.105-0.726-0.153-0.726-0.516 0-0.379 0.205-0.468 0.689-0.468 0.284 0 0.595 0.032 0.832 0.074v-0.579c-0.174-0.042-0.474-0.095-0.9-0.095-0.9 0-1.321 0.237-1.321 1.116s0.421 0.963 1.063 1.084c0.474 0.089 0.679 0.132 0.679 0.532 0 0.363-0.174 0.468-0.737 0.468-0.358 0-0.732-0.042-0.937-0.084v0.616c0.211 0.037 0.637 0.068 1 0.068zM15.421 17.742l1.063-3.684h-0.737l-0.758 2.858-0.758-2.858h-0.737l1.063 3.684h0.863z"></path>
</symbol>
<symbol id="icon-pdf" viewBox="0 0 24 24">
<path d="M20 8l-6-6h-8c-1.1 0-1.99 0.9-1.99 2l-0.010 16c0 1.1 0.89 2 1.99 2h12.010c1.1 0 2-0.9 2-2v-12zM18 20h-12v-16h7v5h5v11z"></path>
<path d="M8.708 17.784v-1.341h0.714c0.865 0 1.211-0.373 1.211-1.227 0-0.865-0.357-1.216-1.211-1.216h-1.422v3.784h0.708zM9.324 15.87h-0.616v-1.297h0.616c0.443 0 0.627 0.195 0.627 0.649s-0.184 0.649-0.627 0.649zM12.616 17.784c1.011 0 1.422-0.422 1.422-1.508v-0.746c0-1.108-0.411-1.53-1.422-1.53h-1.4v3.784h1.4zM12.551 17.178h-0.627v-2.573h0.627c0.568 0 0.778 0.243 0.778 0.881v0.832c0 0.616-0.211 0.859-0.778 0.859zM15.492 17.784v-1.508h1.346v-0.605h-1.346v-1.065h1.492v-0.605h-2.2v3.784h0.708z"></path>
</symbol>
<symbol id="icon-txt" viewBox="0 0 24 24">
<path d="M20 8l-6-6h-8c-1.1 0-1.99 0.9-1.99 2l-0.010 16c0 1.1 0.89 2 1.99 2h12.010c1.1 0 2-0.9 2-2v-12zM18 20h-12v-16h7v5h5v11z"></path>
<path d="M9.632 17.684v-3.095h0.942v-0.589h-2.574v0.589h0.942v3.095h0.689zM11.521 17.684l0.684-1.384 0.689 1.384h0.758l-0.995-1.884 0.937-1.8h-0.758l-0.632 1.284-0.632-1.284h-0.763l0.942 1.8-1 1.884h0.768zM15.463 17.684v-3.095h0.942v-0.589h-2.574v0.589h0.942v3.095h0.689z"></path>
</symbol>
<symbol id="icon-copy" viewBox="0 0 24 24">
<path d="M6.054 5.054h8.037v-2.054h-8.037c-1.133 0-2.054 0.921-2.054 2.054v10.812h2.054v-10.812zM9.134 8.134v10.812h8.038l-0.001-10.812h-8.037zM17.171 21h-8.037c-1.133 0-2.054-0.921-2.054-2.054v-10.812c0-1.133 0.921-2.054 2.054-2.054h8.037c1.133 0 2.054 0.921 2.054 2.054v10.812c0 1.133-0.921 2.054-2.054 2.054v0z"></path>
</symbol>
<symbol id="icon-noti-alert" viewBox="0 0 24 24">
<path d="M12 2c-0.83 0-1.5 0.648-1.5 1.45v1.131c-3.14 0.658-5.5 3.365-5.5 6.604v5.802l-2 1.934v0.967h18v-0.967l-2-1.934v-5.802c0-3.239-2.36-5.947-5.5-6.604v-1.131c0-0.803-0.67-1.45-1.5-1.45v0zM12 6.351c2.76 0 5 2.166 5 4.835v6.769h-10v-6.769c0-2.669 2.24-4.835 5-4.835v0zM10.010 20.865c0 1.064 0.89 1.924 1.99 1.924s1.99-0.861 1.99-1.924h-3.98z"></path>
<path fill="#fa6463" class="fill-color5-fa6463" d="M21 5.5c0 1.933-1.567 3.5-3.5 3.5s-3.5-1.567-3.5-3.5c0-1.933 1.567-3.5 3.5-3.5s3.5 1.567 3.5 3.5z"></path>
</symbol>
<symbol id="icon-user-add" viewBox="0 0 24 24">
<path d="M10.714 3.857c-2.131 0-3.857 1.726-3.857 3.857s1.726 3.857 3.857 3.857c2.131 0 3.857-1.726 3.857-3.857s-1.726-3.857-3.857-3.857zM10.714 14.197c1.556 0 3.25 0.526 4.402 1.124v-1.977c-1.513-0.538-3.225-0.808-4.402-0.808zM10.714 12.536c-2.575 0-7.714 1.293-7.714 3.857v2.893h9.603v-1.661h-7.674v-1.131c0.193-0.823 3.182-2.297 5.786-2.297zM10.714 5.786c1.060 0 1.929 0.868 1.929 1.929s-0.868 1.929-1.929 1.929c-1.061 0-1.929-0.867-1.929-1.929s0.867-1.929 1.929-1.929z"></path>
<path d="M18.159 15.111h-1.673v2.509h-2.509c0.009 0.009 0 1.672 0 1.672h2.509v2.501c0.009 0.009 1.673 0 1.673 0v-2.501h2.509v-1.672h-2.509v-2.509z"></path>
</symbol>
<symbol id="icon-favorite" viewBox="0 0 24 24">
<path d="M10.77 3.532c0.45 0.207 0.861 0.459 1.23 0.751 0.369-0.293 0.78-0.544 1.229-0.751 1.668-0.767 3.591-0.69 5.103 0.142 0.825 0.453 1.483 1.086 1.954 1.881 0.474 0.796 0.714 1.682 0.714 2.633 0 1.098-0.331 2.212-0.985 3.311-0.508 0.839-1.251 1.743-2.276 2.767l-0.274 0.269c-0.673 0.659-1.903 1.773-3.66 3.311l-1.799 1.558-2.66-2.283c-1.188-1.050-2.089-1.868-2.676-2.436l-0.13-0.127c-1.167-1.134-1.997-2.129-2.537-3.044-0.663-1.091-1.003-2.214-1.003-3.327 0-0.953 0.244-1.84 0.728-2.638 0.478-0.792 1.134-1.422 1.948-1.873 1.486-0.822 3.405-0.923 5.095-0.144zM14.021 5.252c-0.522 0.242-0.963 0.564-1.312 0.958l-0.71 0.803-0.71-0.803c-0.353-0.4-0.783-0.712-1.313-0.958-0.524-0.242-1.047-0.359-1.597-0.359-0.668 0-1.252 0.144-1.786 0.44-0.529 0.293-0.936 0.684-1.246 1.197-0.305 0.505-0.454 1.047-0.454 1.658 0 0.761 0.247 1.553 0.733 2.353 0.453 0.767 1.202 1.658 2.232 2.658l0.128 0.125c0.567 0.546 1.445 1.345 2.611 2.375l1.395 1.21 0.567-0.491c1.727-1.514 2.933-2.603 3.578-3.235l0.267-0.261c0.897-0.898 1.567-1.706 1.985-2.398 0.474-0.795 0.715-1.584 0.715-2.336 0-0.614-0.146-1.159-0.447-1.664-0.302-0.508-0.707-0.897-1.239-1.189-1.002-0.551-2.258-0.607-3.397-0.082z"></path>
</symbol>
<symbol id="icon-bookbank1" viewBox="0 0 24 24">
<path d="M7.126 17.154v-0.825h9.748c0.861 0 1.57-0.663 1.644-1.506l0.832-2.696v5.027h-12.223zM4.972 13.762h12.145l-0.208 0.673-0.035 0.243h-12.185l0.283-0.917zM19.311 6.65l-1.683 5.461h-12.146l1.608-5.217 0.036-0.243h12.185zM19.35 5h-12.223c-0.111 0-0.22 0.012-0.324 0.033-0.034 0.007-0.066 0.020-0.099 0.030-0.069 0.018-0.138 0.036-0.203 0.063-0.038 0.016-0.073 0.037-0.11 0.056-0.055 0.028-0.112 0.055-0.165 0.090-0.036 0.023-0.068 0.052-0.103 0.078-0.046 0.037-0.094 0.073-0.137 0.113-0.033 0.032-0.061 0.067-0.091 0.101-0.038 0.043-0.076 0.086-0.11 0.133-0.026 0.038-0.050 0.078-0.073 0.119-0.029 0.049-0.057 0.097-0.081 0.149-0.021 0.044-0.035 0.088-0.052 0.134-0.019 0.053-0.037 0.106-0.050 0.163-0.012 0.048-0.020 0.097-0.027 0.147-0.006 0.033-0.015 0.064-0.018 0.098l-2.446 7.929-0.036 0.243c0 0.91 0.74 1.65 1.65 1.65h0.825v0.825c0 0.91 0.74 1.65 1.65 1.65h12.223c0.909 0 1.65-0.74 1.65-1.65v-10.504c0-0.91-0.741-1.65-1.65-1.65v0z"></path>
</symbol>
<symbol id="icon-bookbank2" viewBox="0 0 24 24">
<path d="M12 2c-5.52 0-10 4.48-10 10s4.48 10 10 10c5.52 0 10-4.48 10-10s-4.48-10-10-10z"></path>
<path fill="#fff" class="fill-color3-fff" d="M7.98 15.778v-0.596h7.040c0.622 0 1.134-0.479 1.187-1.088l0.601-1.947v3.631h-8.828zM6.424 13.328h8.771l-0.15 0.486-0.025 0.176h-8.801l0.204-0.662zM16.78 8.192l-1.216 3.944h-8.772l1.162-3.768 0.026-0.176h8.8zM16.808 7h-8.828c-0.080 0-0.159 0.009-0.234 0.024-0.024 0.005-0.048 0.014-0.072 0.021-0.050 0.013-0.1 0.026-0.147 0.045-0.027 0.011-0.052 0.027-0.079 0.041-0.040 0.020-0.081 0.040-0.119 0.065-0.026 0.017-0.049 0.038-0.075 0.057-0.033 0.027-0.068 0.052-0.099 0.082-0.024 0.023-0.044 0.048-0.066 0.073-0.027 0.031-0.055 0.062-0.079 0.096-0.019 0.027-0.036 0.057-0.053 0.086-0.021 0.035-0.041 0.070-0.058 0.108-0.015 0.032-0.026 0.064-0.038 0.097-0.014 0.038-0.027 0.077-0.036 0.117-0.009 0.035-0.014 0.070-0.020 0.106-0.004 0.024-0.011 0.046-0.013 0.071l-1.767 5.726-0.026 0.176c0 0.657 0.535 1.192 1.192 1.192h0.596v0.596c0 0.657 0.535 1.192 1.192 1.192h8.828c0.657 0 1.192-0.535 1.192-1.192v-7.586c0-0.657-0.535-1.192-1.192-1.192v0z"></path>
</symbol>
<symbol id="icon-user2" viewBox="0 0 24 24">
<path d="M12 2c-5.52 0-10 4.48-10 10s4.48 10 10 10c5.52 0 10-4.48 10-10s-4.48-10-10-10z"></path>
<path fill="#fff" class="fill-color3-fff" d="M12 13c-2.002 0-6 0.766-6 2.286v1.714h12v-1.714c0-1.52-3.997-2.286-6-2.286zM12 6c-1.658 0-3 1.342-3 3s1.342 3 3 3c1.658 0 3-1.342 3-3s-1.342-3-3-3z"></path>
</symbol>
<symbol id="icon-Credit-Search" viewBox="0 0 24 24">
<path d="M8.40879 8.94614C10.1312 10.6685 10.3114 13.3491 8.94936 15.272L8.80802 15.4617L13.0254 19.68L13.1002 19.7667C13.3248 20.0695 13.2999 20.499 13.0254 20.7735C12.7509 21.048 12.3213 21.073 12.0186 20.8484L11.9319 20.7735L7.67545 16.5171C5.75994 17.8086 3.13748 17.607 1.44272 15.9122C-0.480907 13.9886 -0.480907 10.8698 1.44272 8.94614C3.36635 7.02251 6.48517 7.02251 8.40879 8.94614ZM10.1289 0C10.7254 0 11.2976 0.236891 11.7195 0.658593L14.5314 3.46899L17.339 6.28087C17.7602 6.70273 17.9968 7.27451 17.9968 7.87066V17.75C17.9968 18.9926 16.9895 20 15.7468 20L14.2375 20.0006C14.2001 19.7076 14.0892 19.4214 13.9033 19.1709L13.7823 19.0266L13.2556 18.499L15.7468 18.5C16.161 18.5 16.4968 18.1642 16.4968 17.75L16.496 8.003L12.25 8.00389C11.0591 8.00389 10.0844 7.07873 10.0052 5.90794L10 5.75389V1.5H4.25C3.83579 1.5 3.5 1.83579 3.5 2.25L3.49967 6.67117C2.98079 6.79428 2.47529 6.98818 1.99856 7.25288L2 2.25C2 1.00736 3.00736 0 4.25 0H10.1289ZM2.53622 10.0396C1.21652 11.3593 1.21652 13.499 2.53622 14.8187C3.85593 16.1384 5.99559 16.1384 7.31529 14.8187C8.63499 13.499 8.63499 11.3593 7.31529 10.0396C5.99559 8.71994 3.85593 8.71994 2.53622 10.0396ZM11.5 2.56V5.75389C11.5 6.13359 11.7822 6.44738 12.1482 6.49704L12.25 6.50389L15.441 6.503L11.5 2.56Z"/>
</symbol>
<symbol id="icon-delete" viewBox="0 0 24 24">
<path d="M10 0.25C11.733 0.25 13.1492 1.60645 13.2449 3.31558L13.25 3.5H18.5C18.9142 3.5 19.25 3.83579 19.25 4.25C19.25 4.6297 18.9678 4.94349 18.6018 4.99315L18.5 5H17.704L16.4239 18.0192C16.2912 19.3683 15.1984 20.41 13.8626 20.4945L13.6871 20.5H6.31293C4.95734 20.5 3.81365 19.5145 3.59883 18.1934L3.57614 18.0192L2.295 5H1.5C1.1203 5 0.806509 4.71785 0.756847 4.35177L0.75 4.25C0.75 3.8703 1.03215 3.55651 1.39823 3.50685L1.5 3.5H6.75C6.75 1.70507 8.20507 0.25 10 0.25ZM16.197 5H3.802L5.06893 17.8724C5.12768 18.4696 5.60033 18.9343 6.18585 18.9936L6.31293 19H13.6871C14.2872 19 14.7959 18.5751 14.9123 17.9982L14.9311 17.8724L16.197 5ZM11.75 7.75C12.1297 7.75 12.4435 8.03215 12.4932 8.39823L12.5 8.5V15.5C12.5 15.9142 12.1642 16.25 11.75 16.25C11.3703 16.25 11.0565 15.9678 11.0068 15.6018L11 15.5V8.5C11 8.08579 11.3358 7.75 11.75 7.75ZM8.25 7.75C8.6297 7.75 8.94349 8.03215 8.99315 8.39823L9 8.5V15.5C9 15.9142 8.66421 16.25 8.25 16.25C7.8703 16.25 7.55651 15.9678 7.50685 15.6018L7.5 15.5V8.5C7.5 8.08579 7.83579 7.75 8.25 7.75ZM10 1.75C9.08183 1.75 8.32881 2.45711 8.2558 3.35647L8.25 3.5H11.75C11.75 2.5335 10.9665 1.75 10 1.75Z" fill="#D0082C"/>
</symbol>
<symbol id="icon-hammer" viewBox="0 0 24 24">
<rect width="24" height="24" rx="12" fill="#279400"/>
<path d="M8.43879 7.28258C7.77052 7.95096 7.87936 9.06343 8.66448 9.58958L10.4304 10.773L4.57743 16.6256C3.80557 17.3975 3.80557 18.6489 4.57743 19.4207C5.3493 20.1925 6.60073 20.1925 7.3726 19.4207L13.2252 13.5683L14.4085 15.3346C14.9346 16.1199 16.0469 16.2287 16.7151 15.5603L19.5559 12.7191C20.2095 12.0654 20.122 10.9815 19.3719 10.4411L16.0577 8.05353C16.0141 8.02206 15.9757 7.98374 15.9443 7.94005L13.5571 4.62535C13.0168 3.87513 11.9332 3.7876 11.2795 4.44137L8.43879 7.28258ZM12.6579 12.7214L6.66548 18.7136C6.28414 19.0949 5.66588 19.0949 5.28455 18.7136C4.90322 18.3323 4.90322 17.714 5.28455 17.3327L11.2771 11.3404L12.0219 11.8395C12.0761 11.8758 12.1226 11.9224 12.1589 11.9766L12.6579 12.7214ZM9.22106 8.75875C8.95936 8.58337 8.92308 8.21254 9.14583 7.98975L11.9866 5.14854C12.2044 4.93062 12.5657 4.95979 12.7458 5.20987L13.3138 5.99859L10.0188 9.29338L9.22106 8.75875ZM10.8656 9.86083L13.9059 6.82072L15.1329 8.52456C15.2273 8.65564 15.3423 8.7706 15.4733 8.86502L17.178 10.0931L14.1376 13.1335L12.9896 11.4199C12.8807 11.2573 12.741 11.1176 12.5785 11.0087L10.8656 9.86083ZM18 10.6853L18.7875 11.2526C19.0375 11.4328 19.0667 11.794 18.8488 12.012L16.0081 14.8532C15.7853 15.076 15.4146 15.0397 15.2392 14.7779L14.7049 13.9803L18 10.6853ZM13.9993 18.4995C13.9993 18.2234 14.2231 17.9995 14.4993 17.9995H17.4993C17.7754 17.9995 17.9993 18.2234 17.9993 18.4995C17.9993 18.7757 17.7754 18.9995 17.4993 18.9995H19.4993C19.7754 18.9995 19.9993 19.2234 19.9993 19.4995C19.9993 19.7757 19.7754 19.9995 19.4993 19.9995H12.4993C12.2231 19.9995 11.9993 19.7757 11.9993 19.4995C11.9993 19.2234 12.2231 18.9995 12.4993 18.9995H14.4993C14.2231 18.9995 13.9993 18.7757 13.9993 18.4995Z" fill="white"/>
</symbol>
</defs>
</svg>
